G04 #@! TF.GenerationSoftware,KiCad,Pcbnew,(5.1.5)-3*
G04 #@! TF.CreationDate,2020-05-29T16:11:53-04:00*
G04 #@! TF.ProjectId,8031-sys06,38303331-2d73-4797-9330-362e6b696361,rev?*
G04 #@! TF.SameCoordinates,Original*
G04 #@! TF.FileFunction,Legend,Top*
G04 #@! TF.FilePolarity,Positive*
%FSLAX46Y46*%
G04 Gerber Fmt 4.6, Leading zero omitted, Abs format (unit mm)*
G04 Created by KiCad (PCBNEW (5.1.5)-3) date 2020-05-29 16:11:53*
%MOMM*%
%LPD*%
G04 APERTURE LIST*
%ADD10C,0.150000*%
%ADD11C,0.120000*%
%ADD12C,0.100000*%
G04 APERTURE END LIST*
D10*
X37417619Y-93067142D02*
X37465238Y-93114761D01*
X37417619Y-93162380D01*
X37370000Y-93114761D01*
X37417619Y-93067142D01*
X37417619Y-93162380D01*
X37417619Y-92781428D02*
X37370000Y-92210000D01*
X37417619Y-92162380D01*
X37465238Y-92210000D01*
X37417619Y-92781428D01*
X37417619Y-92162380D01*
X37893809Y-93162380D02*
X37893809Y-92162380D01*
X38274761Y-92162380D01*
X38370000Y-92210000D01*
X38417619Y-92257619D01*
X38465238Y-92352857D01*
X38465238Y-92495714D01*
X38417619Y-92590952D01*
X38370000Y-92638571D01*
X38274761Y-92686190D01*
X37893809Y-92686190D01*
X38846190Y-93114761D02*
X38989047Y-93162380D01*
X39227142Y-93162380D01*
X39322380Y-93114761D01*
X39370000Y-93067142D01*
X39417619Y-92971904D01*
X39417619Y-92876666D01*
X39370000Y-92781428D01*
X39322380Y-92733809D01*
X39227142Y-92686190D01*
X39036666Y-92638571D01*
X38941428Y-92590952D01*
X38893809Y-92543333D01*
X38846190Y-92448095D01*
X38846190Y-92352857D01*
X38893809Y-92257619D01*
X38941428Y-92210000D01*
X39036666Y-92162380D01*
X39274761Y-92162380D01*
X39417619Y-92210000D01*
X39846190Y-92638571D02*
X40179523Y-92638571D01*
X40322380Y-93162380D02*
X39846190Y-93162380D01*
X39846190Y-92162380D01*
X40322380Y-92162380D01*
X40750952Y-93162380D02*
X40750952Y-92162380D01*
X41322380Y-93162380D01*
X41322380Y-92162380D01*
X39544761Y-95416666D02*
X40020952Y-95416666D01*
X39449523Y-95702380D02*
X39782857Y-94702380D01*
X40116190Y-95702380D01*
X40925714Y-95702380D02*
X40449523Y-95702380D01*
X40449523Y-94702380D01*
X41259047Y-95178571D02*
X41592380Y-95178571D01*
X41735238Y-95702380D02*
X41259047Y-95702380D01*
X41259047Y-94702380D01*
X41735238Y-94702380D01*
X50077619Y-120848571D02*
X50077619Y-120372380D01*
X49601428Y-120324761D01*
X49649047Y-120372380D01*
X49696666Y-120467619D01*
X49696666Y-120705714D01*
X49649047Y-120800952D01*
X49601428Y-120848571D01*
X49506190Y-120896190D01*
X49268095Y-120896190D01*
X49172857Y-120848571D01*
X49125238Y-120800952D01*
X49077619Y-120705714D01*
X49077619Y-120467619D01*
X49125238Y-120372380D01*
X49172857Y-120324761D01*
X50077619Y-121181904D02*
X49077619Y-121515238D01*
X50077619Y-121848571D01*
X49077619Y-122610476D02*
X50077619Y-122610476D01*
X49125238Y-122610476D02*
X49077619Y-122515238D01*
X49077619Y-122324761D01*
X49125238Y-122229523D01*
X49172857Y-122181904D01*
X49268095Y-122134285D01*
X49553809Y-122134285D01*
X49649047Y-122181904D01*
X49696666Y-122229523D01*
X49744285Y-122324761D01*
X49744285Y-122515238D01*
X49696666Y-122610476D01*
X49125238Y-123515238D02*
X49077619Y-123420000D01*
X49077619Y-123229523D01*
X49125238Y-123134285D01*
X49172857Y-123086666D01*
X49268095Y-123039047D01*
X49553809Y-123039047D01*
X49649047Y-123086666D01*
X49696666Y-123134285D01*
X49744285Y-123229523D01*
X49744285Y-123420000D01*
X49696666Y-123515238D01*
X42410000Y-121158095D02*
X42457619Y-121062857D01*
X42457619Y-120920000D01*
X42410000Y-120777142D01*
X42314761Y-120681904D01*
X42219523Y-120634285D01*
X42029047Y-120586666D01*
X41886190Y-120586666D01*
X41695714Y-120634285D01*
X41600476Y-120681904D01*
X41505238Y-120777142D01*
X41457619Y-120920000D01*
X41457619Y-121015238D01*
X41505238Y-121158095D01*
X41552857Y-121205714D01*
X41886190Y-121205714D01*
X41886190Y-121015238D01*
X41457619Y-121634285D02*
X42457619Y-121634285D01*
X41457619Y-122205714D01*
X42457619Y-122205714D01*
X41457619Y-122681904D02*
X42457619Y-122681904D01*
X42457619Y-122920000D01*
X42410000Y-123062857D01*
X42314761Y-123158095D01*
X42219523Y-123205714D01*
X42029047Y-123253333D01*
X41886190Y-123253333D01*
X41695714Y-123205714D01*
X41600476Y-123158095D01*
X41505238Y-123062857D01*
X41457619Y-122920000D01*
X41457619Y-122681904D01*
X54157619Y-108481904D02*
X55157619Y-108481904D01*
X55157619Y-108720000D01*
X55110000Y-108862857D01*
X55014761Y-108958095D01*
X54919523Y-109005714D01*
X54729047Y-109053333D01*
X54586190Y-109053333D01*
X54395714Y-109005714D01*
X54300476Y-108958095D01*
X54205238Y-108862857D01*
X54157619Y-108720000D01*
X54157619Y-108481904D01*
X55157619Y-109386666D02*
X55157619Y-110053333D01*
X54157619Y-109624761D01*
X54157619Y-105941904D02*
X55157619Y-105941904D01*
X55157619Y-106180000D01*
X55110000Y-106322857D01*
X55014761Y-106418095D01*
X54919523Y-106465714D01*
X54729047Y-106513333D01*
X54586190Y-106513333D01*
X54395714Y-106465714D01*
X54300476Y-106418095D01*
X54205238Y-106322857D01*
X54157619Y-106180000D01*
X54157619Y-105941904D01*
X55157619Y-107370476D02*
X55157619Y-107180000D01*
X55110000Y-107084761D01*
X55062380Y-107037142D01*
X54919523Y-106941904D01*
X54729047Y-106894285D01*
X54348095Y-106894285D01*
X54252857Y-106941904D01*
X54205238Y-106989523D01*
X54157619Y-107084761D01*
X54157619Y-107275238D01*
X54205238Y-107370476D01*
X54252857Y-107418095D01*
X54348095Y-107465714D01*
X54586190Y-107465714D01*
X54681428Y-107418095D01*
X54729047Y-107370476D01*
X54776666Y-107275238D01*
X54776666Y-107084761D01*
X54729047Y-106989523D01*
X54681428Y-106941904D01*
X54586190Y-106894285D01*
X54157619Y-103401904D02*
X55157619Y-103401904D01*
X55157619Y-103640000D01*
X55110000Y-103782857D01*
X55014761Y-103878095D01*
X54919523Y-103925714D01*
X54729047Y-103973333D01*
X54586190Y-103973333D01*
X54395714Y-103925714D01*
X54300476Y-103878095D01*
X54205238Y-103782857D01*
X54157619Y-103640000D01*
X54157619Y-103401904D01*
X55157619Y-104878095D02*
X55157619Y-104401904D01*
X54681428Y-104354285D01*
X54729047Y-104401904D01*
X54776666Y-104497142D01*
X54776666Y-104735238D01*
X54729047Y-104830476D01*
X54681428Y-104878095D01*
X54586190Y-104925714D01*
X54348095Y-104925714D01*
X54252857Y-104878095D01*
X54205238Y-104830476D01*
X54157619Y-104735238D01*
X54157619Y-104497142D01*
X54205238Y-104401904D01*
X54252857Y-104354285D01*
X54157619Y-100861904D02*
X55157619Y-100861904D01*
X55157619Y-101100000D01*
X55110000Y-101242857D01*
X55014761Y-101338095D01*
X54919523Y-101385714D01*
X54729047Y-101433333D01*
X54586190Y-101433333D01*
X54395714Y-101385714D01*
X54300476Y-101338095D01*
X54205238Y-101242857D01*
X54157619Y-101100000D01*
X54157619Y-100861904D01*
X54824285Y-102290476D02*
X54157619Y-102290476D01*
X55205238Y-102052380D02*
X54490952Y-101814285D01*
X54490952Y-102433333D01*
X54157619Y-98321904D02*
X55157619Y-98321904D01*
X55157619Y-98560000D01*
X55110000Y-98702857D01*
X55014761Y-98798095D01*
X54919523Y-98845714D01*
X54729047Y-98893333D01*
X54586190Y-98893333D01*
X54395714Y-98845714D01*
X54300476Y-98798095D01*
X54205238Y-98702857D01*
X54157619Y-98560000D01*
X54157619Y-98321904D01*
X55157619Y-99226666D02*
X55157619Y-99845714D01*
X54776666Y-99512380D01*
X54776666Y-99655238D01*
X54729047Y-99750476D01*
X54681428Y-99798095D01*
X54586190Y-99845714D01*
X54348095Y-99845714D01*
X54252857Y-99798095D01*
X54205238Y-99750476D01*
X54157619Y-99655238D01*
X54157619Y-99369523D01*
X54205238Y-99274285D01*
X54252857Y-99226666D01*
X54157619Y-95781904D02*
X55157619Y-95781904D01*
X55157619Y-96020000D01*
X55110000Y-96162857D01*
X55014761Y-96258095D01*
X54919523Y-96305714D01*
X54729047Y-96353333D01*
X54586190Y-96353333D01*
X54395714Y-96305714D01*
X54300476Y-96258095D01*
X54205238Y-96162857D01*
X54157619Y-96020000D01*
X54157619Y-95781904D01*
X55062380Y-96734285D02*
X55110000Y-96781904D01*
X55157619Y-96877142D01*
X55157619Y-97115238D01*
X55110000Y-97210476D01*
X55062380Y-97258095D01*
X54967142Y-97305714D01*
X54871904Y-97305714D01*
X54729047Y-97258095D01*
X54157619Y-96686666D01*
X54157619Y-97305714D01*
X54157619Y-93241904D02*
X55157619Y-93241904D01*
X55157619Y-93480000D01*
X55110000Y-93622857D01*
X55014761Y-93718095D01*
X54919523Y-93765714D01*
X54729047Y-93813333D01*
X54586190Y-93813333D01*
X54395714Y-93765714D01*
X54300476Y-93718095D01*
X54205238Y-93622857D01*
X54157619Y-93480000D01*
X54157619Y-93241904D01*
X54157619Y-94765714D02*
X54157619Y-94194285D01*
X54157619Y-94480000D02*
X55157619Y-94480000D01*
X55014761Y-94384761D01*
X54919523Y-94289523D01*
X54871904Y-94194285D01*
X54157619Y-90701904D02*
X55157619Y-90701904D01*
X55157619Y-90940000D01*
X55110000Y-91082857D01*
X55014761Y-91178095D01*
X54919523Y-91225714D01*
X54729047Y-91273333D01*
X54586190Y-91273333D01*
X54395714Y-91225714D01*
X54300476Y-91178095D01*
X54205238Y-91082857D01*
X54157619Y-90940000D01*
X54157619Y-90701904D01*
X55157619Y-91892380D02*
X55157619Y-91987619D01*
X55110000Y-92082857D01*
X55062380Y-92130476D01*
X54967142Y-92178095D01*
X54776666Y-92225714D01*
X54538571Y-92225714D01*
X54348095Y-92178095D01*
X54252857Y-92130476D01*
X54205238Y-92082857D01*
X54157619Y-91987619D01*
X54157619Y-91892380D01*
X54205238Y-91797142D01*
X54252857Y-91749523D01*
X54348095Y-91701904D01*
X54538571Y-91654285D01*
X54776666Y-91654285D01*
X54967142Y-91701904D01*
X55062380Y-91749523D01*
X55110000Y-91797142D01*
X55157619Y-91892380D01*
X52887619Y-96583809D02*
X53887619Y-96583809D01*
X53887619Y-96964761D01*
X53840000Y-97060000D01*
X53792380Y-97107619D01*
X53697142Y-97155238D01*
X53554285Y-97155238D01*
X53459047Y-97107619D01*
X53411428Y-97060000D01*
X53363809Y-96964761D01*
X53363809Y-96583809D01*
X53887619Y-97488571D02*
X53887619Y-98107619D01*
X53506666Y-97774285D01*
X53506666Y-97917142D01*
X53459047Y-98012380D01*
X53411428Y-98060000D01*
X53316190Y-98107619D01*
X53078095Y-98107619D01*
X52982857Y-98060000D01*
X52935238Y-98012380D01*
X52887619Y-97917142D01*
X52887619Y-97631428D01*
X52935238Y-97536190D01*
X52982857Y-97488571D01*
X53411428Y-99631428D02*
X53363809Y-99774285D01*
X53316190Y-99821904D01*
X53220952Y-99869523D01*
X53078095Y-99869523D01*
X52982857Y-99821904D01*
X52935238Y-99774285D01*
X52887619Y-99679047D01*
X52887619Y-99298095D01*
X53887619Y-99298095D01*
X53887619Y-99631428D01*
X53840000Y-99726666D01*
X53792380Y-99774285D01*
X53697142Y-99821904D01*
X53601904Y-99821904D01*
X53506666Y-99774285D01*
X53459047Y-99726666D01*
X53411428Y-99631428D01*
X53411428Y-99298095D01*
X53554285Y-100726666D02*
X52887619Y-100726666D01*
X53554285Y-100298095D02*
X53030476Y-100298095D01*
X52935238Y-100345714D01*
X52887619Y-100440952D01*
X52887619Y-100583809D01*
X52935238Y-100679047D01*
X52982857Y-100726666D01*
X52935238Y-101155238D02*
X52887619Y-101250476D01*
X52887619Y-101440952D01*
X52935238Y-101536190D01*
X53030476Y-101583809D01*
X53078095Y-101583809D01*
X53173333Y-101536190D01*
X53220952Y-101440952D01*
X53220952Y-101298095D01*
X53268571Y-101202857D01*
X53363809Y-101155238D01*
X53411428Y-101155238D01*
X53506666Y-101202857D01*
X53554285Y-101298095D01*
X53554285Y-101440952D01*
X53506666Y-101536190D01*
X54157619Y-84351904D02*
X55157619Y-84351904D01*
X55157619Y-84590000D01*
X55110000Y-84732857D01*
X55014761Y-84828095D01*
X54919523Y-84875714D01*
X54729047Y-84923333D01*
X54586190Y-84923333D01*
X54395714Y-84875714D01*
X54300476Y-84828095D01*
X54205238Y-84732857D01*
X54157619Y-84590000D01*
X54157619Y-84351904D01*
X55157619Y-85256666D02*
X55157619Y-85923333D01*
X54157619Y-85494761D01*
X54157619Y-81811904D02*
X55157619Y-81811904D01*
X55157619Y-82050000D01*
X55110000Y-82192857D01*
X55014761Y-82288095D01*
X54919523Y-82335714D01*
X54729047Y-82383333D01*
X54586190Y-82383333D01*
X54395714Y-82335714D01*
X54300476Y-82288095D01*
X54205238Y-82192857D01*
X54157619Y-82050000D01*
X54157619Y-81811904D01*
X55157619Y-83240476D02*
X55157619Y-83050000D01*
X55110000Y-82954761D01*
X55062380Y-82907142D01*
X54919523Y-82811904D01*
X54729047Y-82764285D01*
X54348095Y-82764285D01*
X54252857Y-82811904D01*
X54205238Y-82859523D01*
X54157619Y-82954761D01*
X54157619Y-83145238D01*
X54205238Y-83240476D01*
X54252857Y-83288095D01*
X54348095Y-83335714D01*
X54586190Y-83335714D01*
X54681428Y-83288095D01*
X54729047Y-83240476D01*
X54776666Y-83145238D01*
X54776666Y-82954761D01*
X54729047Y-82859523D01*
X54681428Y-82811904D01*
X54586190Y-82764285D01*
X54157619Y-79271904D02*
X55157619Y-79271904D01*
X55157619Y-79510000D01*
X55110000Y-79652857D01*
X55014761Y-79748095D01*
X54919523Y-79795714D01*
X54729047Y-79843333D01*
X54586190Y-79843333D01*
X54395714Y-79795714D01*
X54300476Y-79748095D01*
X54205238Y-79652857D01*
X54157619Y-79510000D01*
X54157619Y-79271904D01*
X55157619Y-80748095D02*
X55157619Y-80271904D01*
X54681428Y-80224285D01*
X54729047Y-80271904D01*
X54776666Y-80367142D01*
X54776666Y-80605238D01*
X54729047Y-80700476D01*
X54681428Y-80748095D01*
X54586190Y-80795714D01*
X54348095Y-80795714D01*
X54252857Y-80748095D01*
X54205238Y-80700476D01*
X54157619Y-80605238D01*
X54157619Y-80367142D01*
X54205238Y-80271904D01*
X54252857Y-80224285D01*
X54157619Y-76731904D02*
X55157619Y-76731904D01*
X55157619Y-76970000D01*
X55110000Y-77112857D01*
X55014761Y-77208095D01*
X54919523Y-77255714D01*
X54729047Y-77303333D01*
X54586190Y-77303333D01*
X54395714Y-77255714D01*
X54300476Y-77208095D01*
X54205238Y-77112857D01*
X54157619Y-76970000D01*
X54157619Y-76731904D01*
X54824285Y-78160476D02*
X54157619Y-78160476D01*
X55205238Y-77922380D02*
X54490952Y-77684285D01*
X54490952Y-78303333D01*
X54157619Y-74191904D02*
X55157619Y-74191904D01*
X55157619Y-74430000D01*
X55110000Y-74572857D01*
X55014761Y-74668095D01*
X54919523Y-74715714D01*
X54729047Y-74763333D01*
X54586190Y-74763333D01*
X54395714Y-74715714D01*
X54300476Y-74668095D01*
X54205238Y-74572857D01*
X54157619Y-74430000D01*
X54157619Y-74191904D01*
X55157619Y-75096666D02*
X55157619Y-75715714D01*
X54776666Y-75382380D01*
X54776666Y-75525238D01*
X54729047Y-75620476D01*
X54681428Y-75668095D01*
X54586190Y-75715714D01*
X54348095Y-75715714D01*
X54252857Y-75668095D01*
X54205238Y-75620476D01*
X54157619Y-75525238D01*
X54157619Y-75239523D01*
X54205238Y-75144285D01*
X54252857Y-75096666D01*
X54157619Y-71651904D02*
X55157619Y-71651904D01*
X55157619Y-71890000D01*
X55110000Y-72032857D01*
X55014761Y-72128095D01*
X54919523Y-72175714D01*
X54729047Y-72223333D01*
X54586190Y-72223333D01*
X54395714Y-72175714D01*
X54300476Y-72128095D01*
X54205238Y-72032857D01*
X54157619Y-71890000D01*
X54157619Y-71651904D01*
X55062380Y-72604285D02*
X55110000Y-72651904D01*
X55157619Y-72747142D01*
X55157619Y-72985238D01*
X55110000Y-73080476D01*
X55062380Y-73128095D01*
X54967142Y-73175714D01*
X54871904Y-73175714D01*
X54729047Y-73128095D01*
X54157619Y-72556666D01*
X54157619Y-73175714D01*
X54157619Y-69111904D02*
X55157619Y-69111904D01*
X55157619Y-69350000D01*
X55110000Y-69492857D01*
X55014761Y-69588095D01*
X54919523Y-69635714D01*
X54729047Y-69683333D01*
X54586190Y-69683333D01*
X54395714Y-69635714D01*
X54300476Y-69588095D01*
X54205238Y-69492857D01*
X54157619Y-69350000D01*
X54157619Y-69111904D01*
X54157619Y-70635714D02*
X54157619Y-70064285D01*
X54157619Y-70350000D02*
X55157619Y-70350000D01*
X55014761Y-70254761D01*
X54919523Y-70159523D01*
X54871904Y-70064285D01*
X54157619Y-66571904D02*
X55157619Y-66571904D01*
X55157619Y-66810000D01*
X55110000Y-66952857D01*
X55014761Y-67048095D01*
X54919523Y-67095714D01*
X54729047Y-67143333D01*
X54586190Y-67143333D01*
X54395714Y-67095714D01*
X54300476Y-67048095D01*
X54205238Y-66952857D01*
X54157619Y-66810000D01*
X54157619Y-66571904D01*
X55157619Y-67762380D02*
X55157619Y-67857619D01*
X55110000Y-67952857D01*
X55062380Y-68000476D01*
X54967142Y-68048095D01*
X54776666Y-68095714D01*
X54538571Y-68095714D01*
X54348095Y-68048095D01*
X54252857Y-68000476D01*
X54205238Y-67952857D01*
X54157619Y-67857619D01*
X54157619Y-67762380D01*
X54205238Y-67667142D01*
X54252857Y-67619523D01*
X54348095Y-67571904D01*
X54538571Y-67524285D01*
X54776666Y-67524285D01*
X54967142Y-67571904D01*
X55062380Y-67619523D01*
X55110000Y-67667142D01*
X55157619Y-67762380D01*
X52887619Y-74993809D02*
X53887619Y-74993809D01*
X53887619Y-75374761D01*
X53840000Y-75470000D01*
X53792380Y-75517619D01*
X53697142Y-75565238D01*
X53554285Y-75565238D01*
X53459047Y-75517619D01*
X53411428Y-75470000D01*
X53363809Y-75374761D01*
X53363809Y-74993809D01*
X52887619Y-76517619D02*
X52887619Y-75946190D01*
X52887619Y-76231904D02*
X53887619Y-76231904D01*
X53744761Y-76136666D01*
X53649523Y-76041428D01*
X53601904Y-75946190D01*
X53411428Y-78041428D02*
X53363809Y-78184285D01*
X53316190Y-78231904D01*
X53220952Y-78279523D01*
X53078095Y-78279523D01*
X52982857Y-78231904D01*
X52935238Y-78184285D01*
X52887619Y-78089047D01*
X52887619Y-77708095D01*
X53887619Y-77708095D01*
X53887619Y-78041428D01*
X53840000Y-78136666D01*
X53792380Y-78184285D01*
X53697142Y-78231904D01*
X53601904Y-78231904D01*
X53506666Y-78184285D01*
X53459047Y-78136666D01*
X53411428Y-78041428D01*
X53411428Y-77708095D01*
X53554285Y-79136666D02*
X52887619Y-79136666D01*
X53554285Y-78708095D02*
X53030476Y-78708095D01*
X52935238Y-78755714D01*
X52887619Y-78850952D01*
X52887619Y-78993809D01*
X52935238Y-79089047D01*
X52982857Y-79136666D01*
X52935238Y-79565238D02*
X52887619Y-79660476D01*
X52887619Y-79850952D01*
X52935238Y-79946190D01*
X53030476Y-79993809D01*
X53078095Y-79993809D01*
X53173333Y-79946190D01*
X53220952Y-79850952D01*
X53220952Y-79708095D01*
X53268571Y-79612857D01*
X53363809Y-79565238D01*
X53411428Y-79565238D01*
X53506666Y-79612857D01*
X53554285Y-79708095D01*
X53554285Y-79850952D01*
X53506666Y-79946190D01*
X47807619Y-105219523D02*
X47807619Y-104648095D01*
X47807619Y-104933809D02*
X48807619Y-104933809D01*
X48664761Y-104838571D01*
X48569523Y-104743333D01*
X48521904Y-104648095D01*
X48807619Y-106124285D02*
X48807619Y-105648095D01*
X48331428Y-105600476D01*
X48379047Y-105648095D01*
X48426666Y-105743333D01*
X48426666Y-105981428D01*
X48379047Y-106076666D01*
X48331428Y-106124285D01*
X48236190Y-106171904D01*
X47998095Y-106171904D01*
X47902857Y-106124285D01*
X47855238Y-106076666D01*
X47807619Y-105981428D01*
X47807619Y-105743333D01*
X47855238Y-105648095D01*
X47902857Y-105600476D01*
X47807619Y-102679523D02*
X47807619Y-102108095D01*
X47807619Y-102393809D02*
X48807619Y-102393809D01*
X48664761Y-102298571D01*
X48569523Y-102203333D01*
X48521904Y-102108095D01*
X48474285Y-103536666D02*
X47807619Y-103536666D01*
X48855238Y-103298571D02*
X48140952Y-103060476D01*
X48140952Y-103679523D01*
X47807619Y-100139523D02*
X47807619Y-99568095D01*
X47807619Y-99853809D02*
X48807619Y-99853809D01*
X48664761Y-99758571D01*
X48569523Y-99663333D01*
X48521904Y-99568095D01*
X48807619Y-100472857D02*
X48807619Y-101091904D01*
X48426666Y-100758571D01*
X48426666Y-100901428D01*
X48379047Y-100996666D01*
X48331428Y-101044285D01*
X48236190Y-101091904D01*
X47998095Y-101091904D01*
X47902857Y-101044285D01*
X47855238Y-100996666D01*
X47807619Y-100901428D01*
X47807619Y-100615714D01*
X47855238Y-100520476D01*
X47902857Y-100472857D01*
X47807619Y-97599523D02*
X47807619Y-97028095D01*
X47807619Y-97313809D02*
X48807619Y-97313809D01*
X48664761Y-97218571D01*
X48569523Y-97123333D01*
X48521904Y-97028095D01*
X48712380Y-97980476D02*
X48760000Y-98028095D01*
X48807619Y-98123333D01*
X48807619Y-98361428D01*
X48760000Y-98456666D01*
X48712380Y-98504285D01*
X48617142Y-98551904D01*
X48521904Y-98551904D01*
X48379047Y-98504285D01*
X47807619Y-97932857D01*
X47807619Y-98551904D01*
X47807619Y-95059523D02*
X47807619Y-94488095D01*
X47807619Y-94773809D02*
X48807619Y-94773809D01*
X48664761Y-94678571D01*
X48569523Y-94583333D01*
X48521904Y-94488095D01*
X47807619Y-96011904D02*
X47807619Y-95440476D01*
X47807619Y-95726190D02*
X48807619Y-95726190D01*
X48664761Y-95630952D01*
X48569523Y-95535714D01*
X48521904Y-95440476D01*
X47807619Y-92519523D02*
X47807619Y-91948095D01*
X47807619Y-92233809D02*
X48807619Y-92233809D01*
X48664761Y-92138571D01*
X48569523Y-92043333D01*
X48521904Y-91948095D01*
X48807619Y-93138571D02*
X48807619Y-93233809D01*
X48760000Y-93329047D01*
X48712380Y-93376666D01*
X48617142Y-93424285D01*
X48426666Y-93471904D01*
X48188571Y-93471904D01*
X47998095Y-93424285D01*
X47902857Y-93376666D01*
X47855238Y-93329047D01*
X47807619Y-93233809D01*
X47807619Y-93138571D01*
X47855238Y-93043333D01*
X47902857Y-92995714D01*
X47998095Y-92948095D01*
X48188571Y-92900476D01*
X48426666Y-92900476D01*
X48617142Y-92948095D01*
X48712380Y-92995714D01*
X48760000Y-93043333D01*
X48807619Y-93138571D01*
X48093333Y-89455714D02*
X48093333Y-89931904D01*
X47807619Y-89360476D02*
X48807619Y-89693809D01*
X47807619Y-90027142D01*
X47807619Y-90408095D02*
X47807619Y-90598571D01*
X47855238Y-90693809D01*
X47902857Y-90741428D01*
X48045714Y-90836666D01*
X48236190Y-90884285D01*
X48617142Y-90884285D01*
X48712380Y-90836666D01*
X48760000Y-90789047D01*
X48807619Y-90693809D01*
X48807619Y-90503333D01*
X48760000Y-90408095D01*
X48712380Y-90360476D01*
X48617142Y-90312857D01*
X48379047Y-90312857D01*
X48283809Y-90360476D01*
X48236190Y-90408095D01*
X48188571Y-90503333D01*
X48188571Y-90693809D01*
X48236190Y-90789047D01*
X48283809Y-90836666D01*
X48379047Y-90884285D01*
X48093333Y-86915714D02*
X48093333Y-87391904D01*
X47807619Y-86820476D02*
X48807619Y-87153809D01*
X47807619Y-87487142D01*
X48379047Y-87963333D02*
X48426666Y-87868095D01*
X48474285Y-87820476D01*
X48569523Y-87772857D01*
X48617142Y-87772857D01*
X48712380Y-87820476D01*
X48760000Y-87868095D01*
X48807619Y-87963333D01*
X48807619Y-88153809D01*
X48760000Y-88249047D01*
X48712380Y-88296666D01*
X48617142Y-88344285D01*
X48569523Y-88344285D01*
X48474285Y-88296666D01*
X48426666Y-88249047D01*
X48379047Y-88153809D01*
X48379047Y-87963333D01*
X48331428Y-87868095D01*
X48283809Y-87820476D01*
X48188571Y-87772857D01*
X47998095Y-87772857D01*
X47902857Y-87820476D01*
X47855238Y-87868095D01*
X47807619Y-87963333D01*
X47807619Y-88153809D01*
X47855238Y-88249047D01*
X47902857Y-88296666D01*
X47998095Y-88344285D01*
X48188571Y-88344285D01*
X48283809Y-88296666D01*
X48331428Y-88249047D01*
X48379047Y-88153809D01*
X48093333Y-84375714D02*
X48093333Y-84851904D01*
X47807619Y-84280476D02*
X48807619Y-84613809D01*
X47807619Y-84947142D01*
X48807619Y-85185238D02*
X48807619Y-85851904D01*
X47807619Y-85423333D01*
X48093333Y-81835714D02*
X48093333Y-82311904D01*
X47807619Y-81740476D02*
X48807619Y-82073809D01*
X47807619Y-82407142D01*
X48807619Y-83169047D02*
X48807619Y-82978571D01*
X48760000Y-82883333D01*
X48712380Y-82835714D01*
X48569523Y-82740476D01*
X48379047Y-82692857D01*
X47998095Y-82692857D01*
X47902857Y-82740476D01*
X47855238Y-82788095D01*
X47807619Y-82883333D01*
X47807619Y-83073809D01*
X47855238Y-83169047D01*
X47902857Y-83216666D01*
X47998095Y-83264285D01*
X48236190Y-83264285D01*
X48331428Y-83216666D01*
X48379047Y-83169047D01*
X48426666Y-83073809D01*
X48426666Y-82883333D01*
X48379047Y-82788095D01*
X48331428Y-82740476D01*
X48236190Y-82692857D01*
X48093333Y-79295714D02*
X48093333Y-79771904D01*
X47807619Y-79200476D02*
X48807619Y-79533809D01*
X47807619Y-79867142D01*
X48807619Y-80676666D02*
X48807619Y-80200476D01*
X48331428Y-80152857D01*
X48379047Y-80200476D01*
X48426666Y-80295714D01*
X48426666Y-80533809D01*
X48379047Y-80629047D01*
X48331428Y-80676666D01*
X48236190Y-80724285D01*
X47998095Y-80724285D01*
X47902857Y-80676666D01*
X47855238Y-80629047D01*
X47807619Y-80533809D01*
X47807619Y-80295714D01*
X47855238Y-80200476D01*
X47902857Y-80152857D01*
X48093333Y-76755714D02*
X48093333Y-77231904D01*
X47807619Y-76660476D02*
X48807619Y-76993809D01*
X47807619Y-77327142D01*
X48474285Y-78089047D02*
X47807619Y-78089047D01*
X48855238Y-77850952D02*
X48140952Y-77612857D01*
X48140952Y-78231904D01*
X48093333Y-74215714D02*
X48093333Y-74691904D01*
X47807619Y-74120476D02*
X48807619Y-74453809D01*
X47807619Y-74787142D01*
X48807619Y-75025238D02*
X48807619Y-75644285D01*
X48426666Y-75310952D01*
X48426666Y-75453809D01*
X48379047Y-75549047D01*
X48331428Y-75596666D01*
X48236190Y-75644285D01*
X47998095Y-75644285D01*
X47902857Y-75596666D01*
X47855238Y-75549047D01*
X47807619Y-75453809D01*
X47807619Y-75168095D01*
X47855238Y-75072857D01*
X47902857Y-75025238D01*
X48093333Y-71675714D02*
X48093333Y-72151904D01*
X47807619Y-71580476D02*
X48807619Y-71913809D01*
X47807619Y-72247142D01*
X48712380Y-72532857D02*
X48760000Y-72580476D01*
X48807619Y-72675714D01*
X48807619Y-72913809D01*
X48760000Y-73009047D01*
X48712380Y-73056666D01*
X48617142Y-73104285D01*
X48521904Y-73104285D01*
X48379047Y-73056666D01*
X47807619Y-72485238D01*
X47807619Y-73104285D01*
X48093333Y-69135714D02*
X48093333Y-69611904D01*
X47807619Y-69040476D02*
X48807619Y-69373809D01*
X47807619Y-69707142D01*
X47807619Y-70564285D02*
X47807619Y-69992857D01*
X47807619Y-70278571D02*
X48807619Y-70278571D01*
X48664761Y-70183333D01*
X48569523Y-70088095D01*
X48521904Y-69992857D01*
X48093333Y-66595714D02*
X48093333Y-67071904D01*
X47807619Y-66500476D02*
X48807619Y-66833809D01*
X47807619Y-67167142D01*
X48807619Y-67690952D02*
X48807619Y-67786190D01*
X48760000Y-67881428D01*
X48712380Y-67929047D01*
X48617142Y-67976666D01*
X48426666Y-68024285D01*
X48188571Y-68024285D01*
X47998095Y-67976666D01*
X47902857Y-67929047D01*
X47855238Y-67881428D01*
X47807619Y-67786190D01*
X47807619Y-67690952D01*
X47855238Y-67595714D01*
X47902857Y-67548095D01*
X47998095Y-67500476D01*
X48188571Y-67452857D01*
X48426666Y-67452857D01*
X48617142Y-67500476D01*
X48712380Y-67548095D01*
X48760000Y-67595714D01*
X48807619Y-67690952D01*
X46823333Y-73041428D02*
X46823333Y-73517619D01*
X46537619Y-72946190D02*
X47537619Y-73279523D01*
X46537619Y-73612857D01*
X46537619Y-74374761D02*
X47537619Y-74374761D01*
X46585238Y-74374761D02*
X46537619Y-74279523D01*
X46537619Y-74089047D01*
X46585238Y-73993809D01*
X46632857Y-73946190D01*
X46728095Y-73898571D01*
X47013809Y-73898571D01*
X47109047Y-73946190D01*
X47156666Y-73993809D01*
X47204285Y-74089047D01*
X47204285Y-74279523D01*
X47156666Y-74374761D01*
X46537619Y-75279523D02*
X47537619Y-75279523D01*
X46585238Y-75279523D02*
X46537619Y-75184285D01*
X46537619Y-74993809D01*
X46585238Y-74898571D01*
X46632857Y-74850952D01*
X46728095Y-74803333D01*
X47013809Y-74803333D01*
X47109047Y-74850952D01*
X47156666Y-74898571D01*
X47204285Y-74993809D01*
X47204285Y-75184285D01*
X47156666Y-75279523D01*
X46537619Y-75755714D02*
X47204285Y-75755714D01*
X47013809Y-75755714D02*
X47109047Y-75803333D01*
X47156666Y-75850952D01*
X47204285Y-75946190D01*
X47204285Y-76041428D01*
X46585238Y-76755714D02*
X46537619Y-76660476D01*
X46537619Y-76470000D01*
X46585238Y-76374761D01*
X46680476Y-76327142D01*
X47061428Y-76327142D01*
X47156666Y-76374761D01*
X47204285Y-76470000D01*
X47204285Y-76660476D01*
X47156666Y-76755714D01*
X47061428Y-76803333D01*
X46966190Y-76803333D01*
X46870952Y-76327142D01*
X46585238Y-77184285D02*
X46537619Y-77279523D01*
X46537619Y-77470000D01*
X46585238Y-77565238D01*
X46680476Y-77612857D01*
X46728095Y-77612857D01*
X46823333Y-77565238D01*
X46870952Y-77470000D01*
X46870952Y-77327142D01*
X46918571Y-77231904D01*
X47013809Y-77184285D01*
X47061428Y-77184285D01*
X47156666Y-77231904D01*
X47204285Y-77327142D01*
X47204285Y-77470000D01*
X47156666Y-77565238D01*
X46585238Y-77993809D02*
X46537619Y-78089047D01*
X46537619Y-78279523D01*
X46585238Y-78374761D01*
X46680476Y-78422380D01*
X46728095Y-78422380D01*
X46823333Y-78374761D01*
X46870952Y-78279523D01*
X46870952Y-78136666D01*
X46918571Y-78041428D01*
X47013809Y-77993809D01*
X47061428Y-77993809D01*
X47156666Y-78041428D01*
X47204285Y-78136666D01*
X47204285Y-78279523D01*
X47156666Y-78374761D01*
X47061428Y-79946190D02*
X47013809Y-80089047D01*
X46966190Y-80136666D01*
X46870952Y-80184285D01*
X46728095Y-80184285D01*
X46632857Y-80136666D01*
X46585238Y-80089047D01*
X46537619Y-79993809D01*
X46537619Y-79612857D01*
X47537619Y-79612857D01*
X47537619Y-79946190D01*
X47490000Y-80041428D01*
X47442380Y-80089047D01*
X47347142Y-80136666D01*
X47251904Y-80136666D01*
X47156666Y-80089047D01*
X47109047Y-80041428D01*
X47061428Y-79946190D01*
X47061428Y-79612857D01*
X47204285Y-81041428D02*
X46537619Y-81041428D01*
X47204285Y-80612857D02*
X46680476Y-80612857D01*
X46585238Y-80660476D01*
X46537619Y-80755714D01*
X46537619Y-80898571D01*
X46585238Y-80993809D01*
X46632857Y-81041428D01*
X46585238Y-81470000D02*
X46537619Y-81565238D01*
X46537619Y-81755714D01*
X46585238Y-81850952D01*
X46680476Y-81898571D01*
X46728095Y-81898571D01*
X46823333Y-81850952D01*
X46870952Y-81755714D01*
X46870952Y-81612857D01*
X46918571Y-81517619D01*
X47013809Y-81470000D01*
X47061428Y-81470000D01*
X47156666Y-81517619D01*
X47204285Y-81612857D01*
X47204285Y-81755714D01*
X47156666Y-81850952D01*
X41457619Y-84351904D02*
X42457619Y-84351904D01*
X42457619Y-84590000D01*
X42410000Y-84732857D01*
X42314761Y-84828095D01*
X42219523Y-84875714D01*
X42029047Y-84923333D01*
X41886190Y-84923333D01*
X41695714Y-84875714D01*
X41600476Y-84828095D01*
X41505238Y-84732857D01*
X41457619Y-84590000D01*
X41457619Y-84351904D01*
X42457619Y-85256666D02*
X42457619Y-85923333D01*
X41457619Y-85494761D01*
X41457619Y-81811904D02*
X42457619Y-81811904D01*
X42457619Y-82050000D01*
X42410000Y-82192857D01*
X42314761Y-82288095D01*
X42219523Y-82335714D01*
X42029047Y-82383333D01*
X41886190Y-82383333D01*
X41695714Y-82335714D01*
X41600476Y-82288095D01*
X41505238Y-82192857D01*
X41457619Y-82050000D01*
X41457619Y-81811904D01*
X42457619Y-83240476D02*
X42457619Y-83050000D01*
X42410000Y-82954761D01*
X42362380Y-82907142D01*
X42219523Y-82811904D01*
X42029047Y-82764285D01*
X41648095Y-82764285D01*
X41552857Y-82811904D01*
X41505238Y-82859523D01*
X41457619Y-82954761D01*
X41457619Y-83145238D01*
X41505238Y-83240476D01*
X41552857Y-83288095D01*
X41648095Y-83335714D01*
X41886190Y-83335714D01*
X41981428Y-83288095D01*
X42029047Y-83240476D01*
X42076666Y-83145238D01*
X42076666Y-82954761D01*
X42029047Y-82859523D01*
X41981428Y-82811904D01*
X41886190Y-82764285D01*
X41457619Y-79271904D02*
X42457619Y-79271904D01*
X42457619Y-79510000D01*
X42410000Y-79652857D01*
X42314761Y-79748095D01*
X42219523Y-79795714D01*
X42029047Y-79843333D01*
X41886190Y-79843333D01*
X41695714Y-79795714D01*
X41600476Y-79748095D01*
X41505238Y-79652857D01*
X41457619Y-79510000D01*
X41457619Y-79271904D01*
X42457619Y-80748095D02*
X42457619Y-80271904D01*
X41981428Y-80224285D01*
X42029047Y-80271904D01*
X42076666Y-80367142D01*
X42076666Y-80605238D01*
X42029047Y-80700476D01*
X41981428Y-80748095D01*
X41886190Y-80795714D01*
X41648095Y-80795714D01*
X41552857Y-80748095D01*
X41505238Y-80700476D01*
X41457619Y-80605238D01*
X41457619Y-80367142D01*
X41505238Y-80271904D01*
X41552857Y-80224285D01*
X41457619Y-76731904D02*
X42457619Y-76731904D01*
X42457619Y-76970000D01*
X42410000Y-77112857D01*
X42314761Y-77208095D01*
X42219523Y-77255714D01*
X42029047Y-77303333D01*
X41886190Y-77303333D01*
X41695714Y-77255714D01*
X41600476Y-77208095D01*
X41505238Y-77112857D01*
X41457619Y-76970000D01*
X41457619Y-76731904D01*
X42124285Y-78160476D02*
X41457619Y-78160476D01*
X42505238Y-77922380D02*
X41790952Y-77684285D01*
X41790952Y-78303333D01*
X41457619Y-74191904D02*
X42457619Y-74191904D01*
X42457619Y-74430000D01*
X42410000Y-74572857D01*
X42314761Y-74668095D01*
X42219523Y-74715714D01*
X42029047Y-74763333D01*
X41886190Y-74763333D01*
X41695714Y-74715714D01*
X41600476Y-74668095D01*
X41505238Y-74572857D01*
X41457619Y-74430000D01*
X41457619Y-74191904D01*
X42457619Y-75096666D02*
X42457619Y-75715714D01*
X42076666Y-75382380D01*
X42076666Y-75525238D01*
X42029047Y-75620476D01*
X41981428Y-75668095D01*
X41886190Y-75715714D01*
X41648095Y-75715714D01*
X41552857Y-75668095D01*
X41505238Y-75620476D01*
X41457619Y-75525238D01*
X41457619Y-75239523D01*
X41505238Y-75144285D01*
X41552857Y-75096666D01*
X41457619Y-71651904D02*
X42457619Y-71651904D01*
X42457619Y-71890000D01*
X42410000Y-72032857D01*
X42314761Y-72128095D01*
X42219523Y-72175714D01*
X42029047Y-72223333D01*
X41886190Y-72223333D01*
X41695714Y-72175714D01*
X41600476Y-72128095D01*
X41505238Y-72032857D01*
X41457619Y-71890000D01*
X41457619Y-71651904D01*
X42362380Y-72604285D02*
X42410000Y-72651904D01*
X42457619Y-72747142D01*
X42457619Y-72985238D01*
X42410000Y-73080476D01*
X42362380Y-73128095D01*
X42267142Y-73175714D01*
X42171904Y-73175714D01*
X42029047Y-73128095D01*
X41457619Y-72556666D01*
X41457619Y-73175714D01*
X41457619Y-69111904D02*
X42457619Y-69111904D01*
X42457619Y-69350000D01*
X42410000Y-69492857D01*
X42314761Y-69588095D01*
X42219523Y-69635714D01*
X42029047Y-69683333D01*
X41886190Y-69683333D01*
X41695714Y-69635714D01*
X41600476Y-69588095D01*
X41505238Y-69492857D01*
X41457619Y-69350000D01*
X41457619Y-69111904D01*
X41457619Y-70635714D02*
X41457619Y-70064285D01*
X41457619Y-70350000D02*
X42457619Y-70350000D01*
X42314761Y-70254761D01*
X42219523Y-70159523D01*
X42171904Y-70064285D01*
X41457619Y-66571904D02*
X42457619Y-66571904D01*
X42457619Y-66810000D01*
X42410000Y-66952857D01*
X42314761Y-67048095D01*
X42219523Y-67095714D01*
X42029047Y-67143333D01*
X41886190Y-67143333D01*
X41695714Y-67095714D01*
X41600476Y-67048095D01*
X41505238Y-66952857D01*
X41457619Y-66810000D01*
X41457619Y-66571904D01*
X42457619Y-67762380D02*
X42457619Y-67857619D01*
X42410000Y-67952857D01*
X42362380Y-68000476D01*
X42267142Y-68048095D01*
X42076666Y-68095714D01*
X41838571Y-68095714D01*
X41648095Y-68048095D01*
X41552857Y-68000476D01*
X41505238Y-67952857D01*
X41457619Y-67857619D01*
X41457619Y-67762380D01*
X41505238Y-67667142D01*
X41552857Y-67619523D01*
X41648095Y-67571904D01*
X41838571Y-67524285D01*
X42076666Y-67524285D01*
X42267142Y-67571904D01*
X42362380Y-67619523D01*
X42410000Y-67667142D01*
X42457619Y-67762380D01*
X40187619Y-73009523D02*
X41187619Y-73009523D01*
X41187619Y-73247619D01*
X41140000Y-73390476D01*
X41044761Y-73485714D01*
X40949523Y-73533333D01*
X40759047Y-73580952D01*
X40616190Y-73580952D01*
X40425714Y-73533333D01*
X40330476Y-73485714D01*
X40235238Y-73390476D01*
X40187619Y-73247619D01*
X40187619Y-73009523D01*
X40187619Y-74438095D02*
X40711428Y-74438095D01*
X40806666Y-74390476D01*
X40854285Y-74295238D01*
X40854285Y-74104761D01*
X40806666Y-74009523D01*
X40235238Y-74438095D02*
X40187619Y-74342857D01*
X40187619Y-74104761D01*
X40235238Y-74009523D01*
X40330476Y-73961904D01*
X40425714Y-73961904D01*
X40520952Y-74009523D01*
X40568571Y-74104761D01*
X40568571Y-74342857D01*
X40616190Y-74438095D01*
X40854285Y-74771428D02*
X40854285Y-75152380D01*
X41187619Y-74914285D02*
X40330476Y-74914285D01*
X40235238Y-74961904D01*
X40187619Y-75057142D01*
X40187619Y-75152380D01*
X40187619Y-75914285D02*
X40711428Y-75914285D01*
X40806666Y-75866666D01*
X40854285Y-75771428D01*
X40854285Y-75580952D01*
X40806666Y-75485714D01*
X40235238Y-75914285D02*
X40187619Y-75819047D01*
X40187619Y-75580952D01*
X40235238Y-75485714D01*
X40330476Y-75438095D01*
X40425714Y-75438095D01*
X40520952Y-75485714D01*
X40568571Y-75580952D01*
X40568571Y-75819047D01*
X40616190Y-75914285D01*
X40711428Y-77485714D02*
X40663809Y-77628571D01*
X40616190Y-77676190D01*
X40520952Y-77723809D01*
X40378095Y-77723809D01*
X40282857Y-77676190D01*
X40235238Y-77628571D01*
X40187619Y-77533333D01*
X40187619Y-77152380D01*
X41187619Y-77152380D01*
X41187619Y-77485714D01*
X41140000Y-77580952D01*
X41092380Y-77628571D01*
X40997142Y-77676190D01*
X40901904Y-77676190D01*
X40806666Y-77628571D01*
X40759047Y-77580952D01*
X40711428Y-77485714D01*
X40711428Y-77152380D01*
X40854285Y-78580952D02*
X40187619Y-78580952D01*
X40854285Y-78152380D02*
X40330476Y-78152380D01*
X40235238Y-78200000D01*
X40187619Y-78295238D01*
X40187619Y-78438095D01*
X40235238Y-78533333D01*
X40282857Y-78580952D01*
X40235238Y-79009523D02*
X40187619Y-79104761D01*
X40187619Y-79295238D01*
X40235238Y-79390476D01*
X40330476Y-79438095D01*
X40378095Y-79438095D01*
X40473333Y-79390476D01*
X40520952Y-79295238D01*
X40520952Y-79152380D01*
X40568571Y-79057142D01*
X40663809Y-79009523D01*
X40711428Y-79009523D01*
X40806666Y-79057142D01*
X40854285Y-79152380D01*
X40854285Y-79295238D01*
X40806666Y-79390476D01*
X41457619Y-137191904D02*
X41933809Y-136858571D01*
X41457619Y-136620476D02*
X42457619Y-136620476D01*
X42457619Y-137001428D01*
X42410000Y-137096666D01*
X42362380Y-137144285D01*
X42267142Y-137191904D01*
X42124285Y-137191904D01*
X42029047Y-137144285D01*
X41981428Y-137096666D01*
X41933809Y-137001428D01*
X41933809Y-136620476D01*
X41505238Y-138001428D02*
X41457619Y-137906190D01*
X41457619Y-137715714D01*
X41505238Y-137620476D01*
X41600476Y-137572857D01*
X41981428Y-137572857D01*
X42076666Y-137620476D01*
X42124285Y-137715714D01*
X42124285Y-137906190D01*
X42076666Y-138001428D01*
X41981428Y-138049047D01*
X41886190Y-138049047D01*
X41790952Y-137572857D01*
X41505238Y-138430000D02*
X41457619Y-138525238D01*
X41457619Y-138715714D01*
X41505238Y-138810952D01*
X41600476Y-138858571D01*
X41648095Y-138858571D01*
X41743333Y-138810952D01*
X41790952Y-138715714D01*
X41790952Y-138572857D01*
X41838571Y-138477619D01*
X41933809Y-138430000D01*
X41981428Y-138430000D01*
X42076666Y-138477619D01*
X42124285Y-138572857D01*
X42124285Y-138715714D01*
X42076666Y-138810952D01*
X41505238Y-139668095D02*
X41457619Y-139572857D01*
X41457619Y-139382380D01*
X41505238Y-139287142D01*
X41600476Y-139239523D01*
X41981428Y-139239523D01*
X42076666Y-139287142D01*
X42124285Y-139382380D01*
X42124285Y-139572857D01*
X42076666Y-139668095D01*
X41981428Y-139715714D01*
X41886190Y-139715714D01*
X41790952Y-139239523D01*
X42124285Y-140001428D02*
X42124285Y-140382380D01*
X42457619Y-140144285D02*
X41600476Y-140144285D01*
X41505238Y-140191904D01*
X41457619Y-140287142D01*
X41457619Y-140382380D01*
X41457619Y-154971904D02*
X41933809Y-154638571D01*
X41457619Y-154400476D02*
X42457619Y-154400476D01*
X42457619Y-154781428D01*
X42410000Y-154876666D01*
X42362380Y-154924285D01*
X42267142Y-154971904D01*
X42124285Y-154971904D01*
X42029047Y-154924285D01*
X41981428Y-154876666D01*
X41933809Y-154781428D01*
X41933809Y-154400476D01*
X41505238Y-155781428D02*
X41457619Y-155686190D01*
X41457619Y-155495714D01*
X41505238Y-155400476D01*
X41600476Y-155352857D01*
X41981428Y-155352857D01*
X42076666Y-155400476D01*
X42124285Y-155495714D01*
X42124285Y-155686190D01*
X42076666Y-155781428D01*
X41981428Y-155829047D01*
X41886190Y-155829047D01*
X41790952Y-155352857D01*
X41505238Y-156210000D02*
X41457619Y-156305238D01*
X41457619Y-156495714D01*
X41505238Y-156590952D01*
X41600476Y-156638571D01*
X41648095Y-156638571D01*
X41743333Y-156590952D01*
X41790952Y-156495714D01*
X41790952Y-156352857D01*
X41838571Y-156257619D01*
X41933809Y-156210000D01*
X41981428Y-156210000D01*
X42076666Y-156257619D01*
X42124285Y-156352857D01*
X42124285Y-156495714D01*
X42076666Y-156590952D01*
X41505238Y-157448095D02*
X41457619Y-157352857D01*
X41457619Y-157162380D01*
X41505238Y-157067142D01*
X41600476Y-157019523D01*
X41981428Y-157019523D01*
X42076666Y-157067142D01*
X42124285Y-157162380D01*
X42124285Y-157352857D01*
X42076666Y-157448095D01*
X41981428Y-157495714D01*
X41886190Y-157495714D01*
X41790952Y-157019523D01*
X42124285Y-157781428D02*
X42124285Y-158162380D01*
X42457619Y-157924285D02*
X41600476Y-157924285D01*
X41505238Y-157971904D01*
X41457619Y-158067142D01*
X41457619Y-158162380D01*
X130937619Y-154519761D02*
X131080476Y-154567380D01*
X131318571Y-154567380D01*
X131413809Y-154519761D01*
X131461428Y-154472142D01*
X131509047Y-154376904D01*
X131509047Y-154281666D01*
X131461428Y-154186428D01*
X131413809Y-154138809D01*
X131318571Y-154091190D01*
X131128095Y-154043571D01*
X131032857Y-153995952D01*
X130985238Y-153948333D01*
X130937619Y-153853095D01*
X130937619Y-153757857D01*
X130985238Y-153662619D01*
X131032857Y-153615000D01*
X131128095Y-153567380D01*
X131366190Y-153567380D01*
X131509047Y-153615000D01*
X131842380Y-153567380D02*
X132080476Y-154567380D01*
X132270952Y-153853095D01*
X132461428Y-154567380D01*
X132699523Y-153567380D01*
X132985238Y-153567380D02*
X133604285Y-153567380D01*
X133270952Y-153948333D01*
X133413809Y-153948333D01*
X133509047Y-153995952D01*
X133556666Y-154043571D01*
X133604285Y-154138809D01*
X133604285Y-154376904D01*
X133556666Y-154472142D01*
X133509047Y-154519761D01*
X133413809Y-154567380D01*
X133128095Y-154567380D01*
X133032857Y-154519761D01*
X132985238Y-154472142D01*
X134032857Y-154186428D02*
X134794761Y-154186428D01*
X135270952Y-154043571D02*
X135604285Y-154043571D01*
X135747142Y-154567380D02*
X135270952Y-154567380D01*
X135270952Y-153567380D01*
X135747142Y-153567380D01*
X136175714Y-154043571D02*
X136509047Y-154043571D01*
X136651904Y-154567380D02*
X136175714Y-154567380D01*
X136175714Y-153567380D01*
X136651904Y-153567380D01*
X137080476Y-154567380D02*
X137080476Y-153567380D01*
X137461428Y-153567380D01*
X137556666Y-153615000D01*
X137604285Y-153662619D01*
X137651904Y-153757857D01*
X137651904Y-153900714D01*
X137604285Y-153995952D01*
X137556666Y-154043571D01*
X137461428Y-154091190D01*
X137080476Y-154091190D01*
X138651904Y-154567380D02*
X138318571Y-154091190D01*
X138080476Y-154567380D02*
X138080476Y-153567380D01*
X138461428Y-153567380D01*
X138556666Y-153615000D01*
X138604285Y-153662619D01*
X138651904Y-153757857D01*
X138651904Y-153900714D01*
X138604285Y-153995952D01*
X138556666Y-154043571D01*
X138461428Y-154091190D01*
X138080476Y-154091190D01*
X139270952Y-153567380D02*
X139461428Y-153567380D01*
X139556666Y-153615000D01*
X139651904Y-153710238D01*
X139699523Y-153900714D01*
X139699523Y-154234047D01*
X139651904Y-154424523D01*
X139556666Y-154519761D01*
X139461428Y-154567380D01*
X139270952Y-154567380D01*
X139175714Y-154519761D01*
X139080476Y-154424523D01*
X139032857Y-154234047D01*
X139032857Y-153900714D01*
X139080476Y-153710238D01*
X139175714Y-153615000D01*
X139270952Y-153567380D01*
X140128095Y-154567380D02*
X140128095Y-153567380D01*
X140461428Y-154281666D01*
X140794761Y-153567380D01*
X140794761Y-154567380D01*
X131318571Y-155217380D02*
X131556666Y-156217380D01*
X131747142Y-155503095D01*
X131937619Y-156217380D01*
X132175714Y-155217380D01*
X132556666Y-156217380D02*
X132556666Y-155550714D01*
X132556666Y-155741190D02*
X132604285Y-155645952D01*
X132651904Y-155598333D01*
X132747142Y-155550714D01*
X132842380Y-155550714D01*
X133175714Y-156217380D02*
X133175714Y-155550714D01*
X133175714Y-155217380D02*
X133128095Y-155265000D01*
X133175714Y-155312619D01*
X133223333Y-155265000D01*
X133175714Y-155217380D01*
X133175714Y-155312619D01*
X133509047Y-155550714D02*
X133890000Y-155550714D01*
X133651904Y-155217380D02*
X133651904Y-156074523D01*
X133699523Y-156169761D01*
X133794761Y-156217380D01*
X133890000Y-156217380D01*
X134604285Y-156169761D02*
X134509047Y-156217380D01*
X134318571Y-156217380D01*
X134223333Y-156169761D01*
X134175714Y-156074523D01*
X134175714Y-155693571D01*
X134223333Y-155598333D01*
X134318571Y-155550714D01*
X134509047Y-155550714D01*
X134604285Y-155598333D01*
X134651904Y-155693571D01*
X134651904Y-155788809D01*
X134175714Y-155884047D01*
X135842380Y-155693571D02*
X136175714Y-155693571D01*
X136318571Y-156217380D02*
X135842380Y-156217380D01*
X135842380Y-155217380D01*
X136318571Y-155217380D01*
X136747142Y-155550714D02*
X136747142Y-156217380D01*
X136747142Y-155645952D02*
X136794761Y-155598333D01*
X136890000Y-155550714D01*
X137032857Y-155550714D01*
X137128095Y-155598333D01*
X137175714Y-155693571D01*
X137175714Y-156217380D01*
X138080476Y-156217380D02*
X138080476Y-155693571D01*
X138032857Y-155598333D01*
X137937619Y-155550714D01*
X137747142Y-155550714D01*
X137651904Y-155598333D01*
X138080476Y-156169761D02*
X137985238Y-156217380D01*
X137747142Y-156217380D01*
X137651904Y-156169761D01*
X137604285Y-156074523D01*
X137604285Y-155979285D01*
X137651904Y-155884047D01*
X137747142Y-155836428D01*
X137985238Y-155836428D01*
X138080476Y-155788809D01*
X138556666Y-156217380D02*
X138556666Y-155217380D01*
X138556666Y-155598333D02*
X138651904Y-155550714D01*
X138842380Y-155550714D01*
X138937619Y-155598333D01*
X138985238Y-155645952D01*
X139032857Y-155741190D01*
X139032857Y-156026904D01*
X138985238Y-156122142D01*
X138937619Y-156169761D01*
X138842380Y-156217380D01*
X138651904Y-156217380D01*
X138556666Y-156169761D01*
X139604285Y-156217380D02*
X139509047Y-156169761D01*
X139461428Y-156074523D01*
X139461428Y-155217380D01*
X140366190Y-156169761D02*
X140270952Y-156217380D01*
X140080476Y-156217380D01*
X139985238Y-156169761D01*
X139937619Y-156074523D01*
X139937619Y-155693571D01*
X139985238Y-155598333D01*
X140080476Y-155550714D01*
X140270952Y-155550714D01*
X140366190Y-155598333D01*
X140413809Y-155693571D01*
X140413809Y-155788809D01*
X139937619Y-155884047D01*
X116967619Y-154519761D02*
X117110476Y-154567380D01*
X117348571Y-154567380D01*
X117443809Y-154519761D01*
X117491428Y-154472142D01*
X117539047Y-154376904D01*
X117539047Y-154281666D01*
X117491428Y-154186428D01*
X117443809Y-154138809D01*
X117348571Y-154091190D01*
X117158095Y-154043571D01*
X117062857Y-153995952D01*
X117015238Y-153948333D01*
X116967619Y-153853095D01*
X116967619Y-153757857D01*
X117015238Y-153662619D01*
X117062857Y-153615000D01*
X117158095Y-153567380D01*
X117396190Y-153567380D01*
X117539047Y-153615000D01*
X117872380Y-153567380D02*
X118110476Y-154567380D01*
X118300952Y-153853095D01*
X118491428Y-154567380D01*
X118729523Y-153567380D01*
X119062857Y-153662619D02*
X119110476Y-153615000D01*
X119205714Y-153567380D01*
X119443809Y-153567380D01*
X119539047Y-153615000D01*
X119586666Y-153662619D01*
X119634285Y-153757857D01*
X119634285Y-153853095D01*
X119586666Y-153995952D01*
X119015238Y-154567380D01*
X119634285Y-154567380D01*
X120062857Y-154186428D02*
X120824761Y-154186428D01*
X121300952Y-154043571D02*
X121634285Y-154043571D01*
X121777142Y-154567380D02*
X121300952Y-154567380D01*
X121300952Y-153567380D01*
X121777142Y-153567380D01*
X122205714Y-154043571D02*
X122539047Y-154043571D01*
X122681904Y-154567380D02*
X122205714Y-154567380D01*
X122205714Y-153567380D01*
X122681904Y-153567380D01*
X123110476Y-154567380D02*
X123110476Y-153567380D01*
X123491428Y-153567380D01*
X123586666Y-153615000D01*
X123634285Y-153662619D01*
X123681904Y-153757857D01*
X123681904Y-153900714D01*
X123634285Y-153995952D01*
X123586666Y-154043571D01*
X123491428Y-154091190D01*
X123110476Y-154091190D01*
X124681904Y-154567380D02*
X124348571Y-154091190D01*
X124110476Y-154567380D02*
X124110476Y-153567380D01*
X124491428Y-153567380D01*
X124586666Y-153615000D01*
X124634285Y-153662619D01*
X124681904Y-153757857D01*
X124681904Y-153900714D01*
X124634285Y-153995952D01*
X124586666Y-154043571D01*
X124491428Y-154091190D01*
X124110476Y-154091190D01*
X125300952Y-153567380D02*
X125491428Y-153567380D01*
X125586666Y-153615000D01*
X125681904Y-153710238D01*
X125729523Y-153900714D01*
X125729523Y-154234047D01*
X125681904Y-154424523D01*
X125586666Y-154519761D01*
X125491428Y-154567380D01*
X125300952Y-154567380D01*
X125205714Y-154519761D01*
X125110476Y-154424523D01*
X125062857Y-154234047D01*
X125062857Y-153900714D01*
X125110476Y-153710238D01*
X125205714Y-153615000D01*
X125300952Y-153567380D01*
X126158095Y-154567380D02*
X126158095Y-153567380D01*
X126491428Y-154281666D01*
X126824761Y-153567380D01*
X126824761Y-154567380D01*
X119658095Y-156169761D02*
X119800952Y-156217380D01*
X120039047Y-156217380D01*
X120134285Y-156169761D01*
X120181904Y-156122142D01*
X120229523Y-156026904D01*
X120229523Y-155931666D01*
X120181904Y-155836428D01*
X120134285Y-155788809D01*
X120039047Y-155741190D01*
X119848571Y-155693571D01*
X119753333Y-155645952D01*
X119705714Y-155598333D01*
X119658095Y-155503095D01*
X119658095Y-155407857D01*
X119705714Y-155312619D01*
X119753333Y-155265000D01*
X119848571Y-155217380D01*
X120086666Y-155217380D01*
X120229523Y-155265000D01*
X120562857Y-155217380D02*
X120800952Y-156217380D01*
X120991428Y-155503095D01*
X121181904Y-156217380D01*
X121420000Y-155217380D01*
X121753333Y-155931666D02*
X122229523Y-155931666D01*
X121658095Y-156217380D02*
X121991428Y-155217380D01*
X122324761Y-156217380D01*
X122658095Y-156217380D02*
X122658095Y-155217380D01*
X123039047Y-155217380D01*
X123134285Y-155265000D01*
X123181904Y-155312619D01*
X123229523Y-155407857D01*
X123229523Y-155550714D01*
X123181904Y-155645952D01*
X123134285Y-155693571D01*
X123039047Y-155741190D01*
X122658095Y-155741190D01*
X123610476Y-155312619D02*
X123658095Y-155265000D01*
X123753333Y-155217380D01*
X123991428Y-155217380D01*
X124086666Y-155265000D01*
X124134285Y-155312619D01*
X124181904Y-155407857D01*
X124181904Y-155503095D01*
X124134285Y-155645952D01*
X123562857Y-156217380D01*
X124181904Y-156217380D01*
X102997619Y-154519761D02*
X103140476Y-154567380D01*
X103378571Y-154567380D01*
X103473809Y-154519761D01*
X103521428Y-154472142D01*
X103569047Y-154376904D01*
X103569047Y-154281666D01*
X103521428Y-154186428D01*
X103473809Y-154138809D01*
X103378571Y-154091190D01*
X103188095Y-154043571D01*
X103092857Y-153995952D01*
X103045238Y-153948333D01*
X102997619Y-153853095D01*
X102997619Y-153757857D01*
X103045238Y-153662619D01*
X103092857Y-153615000D01*
X103188095Y-153567380D01*
X103426190Y-153567380D01*
X103569047Y-153615000D01*
X103902380Y-153567380D02*
X104140476Y-154567380D01*
X104330952Y-153853095D01*
X104521428Y-154567380D01*
X104759523Y-153567380D01*
X105664285Y-154567380D02*
X105092857Y-154567380D01*
X105378571Y-154567380D02*
X105378571Y-153567380D01*
X105283333Y-153710238D01*
X105188095Y-153805476D01*
X105092857Y-153853095D01*
X106092857Y-154186428D02*
X106854761Y-154186428D01*
X107330952Y-154043571D02*
X107664285Y-154043571D01*
X107807142Y-154567380D02*
X107330952Y-154567380D01*
X107330952Y-153567380D01*
X107807142Y-153567380D01*
X108235714Y-154043571D02*
X108569047Y-154043571D01*
X108711904Y-154567380D02*
X108235714Y-154567380D01*
X108235714Y-153567380D01*
X108711904Y-153567380D01*
X109140476Y-154567380D02*
X109140476Y-153567380D01*
X109521428Y-153567380D01*
X109616666Y-153615000D01*
X109664285Y-153662619D01*
X109711904Y-153757857D01*
X109711904Y-153900714D01*
X109664285Y-153995952D01*
X109616666Y-154043571D01*
X109521428Y-154091190D01*
X109140476Y-154091190D01*
X110711904Y-154567380D02*
X110378571Y-154091190D01*
X110140476Y-154567380D02*
X110140476Y-153567380D01*
X110521428Y-153567380D01*
X110616666Y-153615000D01*
X110664285Y-153662619D01*
X110711904Y-153757857D01*
X110711904Y-153900714D01*
X110664285Y-153995952D01*
X110616666Y-154043571D01*
X110521428Y-154091190D01*
X110140476Y-154091190D01*
X111330952Y-153567380D02*
X111521428Y-153567380D01*
X111616666Y-153615000D01*
X111711904Y-153710238D01*
X111759523Y-153900714D01*
X111759523Y-154234047D01*
X111711904Y-154424523D01*
X111616666Y-154519761D01*
X111521428Y-154567380D01*
X111330952Y-154567380D01*
X111235714Y-154519761D01*
X111140476Y-154424523D01*
X111092857Y-154234047D01*
X111092857Y-153900714D01*
X111140476Y-153710238D01*
X111235714Y-153615000D01*
X111330952Y-153567380D01*
X112188095Y-154567380D02*
X112188095Y-153567380D01*
X112521428Y-154281666D01*
X112854761Y-153567380D01*
X112854761Y-154567380D01*
X105688095Y-156169761D02*
X105830952Y-156217380D01*
X106069047Y-156217380D01*
X106164285Y-156169761D01*
X106211904Y-156122142D01*
X106259523Y-156026904D01*
X106259523Y-155931666D01*
X106211904Y-155836428D01*
X106164285Y-155788809D01*
X106069047Y-155741190D01*
X105878571Y-155693571D01*
X105783333Y-155645952D01*
X105735714Y-155598333D01*
X105688095Y-155503095D01*
X105688095Y-155407857D01*
X105735714Y-155312619D01*
X105783333Y-155265000D01*
X105878571Y-155217380D01*
X106116666Y-155217380D01*
X106259523Y-155265000D01*
X106592857Y-155217380D02*
X106830952Y-156217380D01*
X107021428Y-155503095D01*
X107211904Y-156217380D01*
X107450000Y-155217380D01*
X107783333Y-155931666D02*
X108259523Y-155931666D01*
X107688095Y-156217380D02*
X108021428Y-155217380D01*
X108354761Y-156217380D01*
X108688095Y-156217380D02*
X108688095Y-155217380D01*
X109069047Y-155217380D01*
X109164285Y-155265000D01*
X109211904Y-155312619D01*
X109259523Y-155407857D01*
X109259523Y-155550714D01*
X109211904Y-155645952D01*
X109164285Y-155693571D01*
X109069047Y-155741190D01*
X108688095Y-155741190D01*
X110211904Y-156217380D02*
X109640476Y-156217380D01*
X109926190Y-156217380D02*
X109926190Y-155217380D01*
X109830952Y-155360238D01*
X109735714Y-155455476D01*
X109640476Y-155503095D01*
X72621428Y-166822380D02*
X72621428Y-165822380D01*
X72859523Y-165822380D01*
X73002380Y-165870000D01*
X73097619Y-165965238D01*
X73145238Y-166060476D01*
X73192857Y-166250952D01*
X73192857Y-166393809D01*
X73145238Y-166584285D01*
X73097619Y-166679523D01*
X73002380Y-166774761D01*
X72859523Y-166822380D01*
X72621428Y-166822380D01*
X74002380Y-166774761D02*
X73907142Y-166822380D01*
X73716666Y-166822380D01*
X73621428Y-166774761D01*
X73573809Y-166679523D01*
X73573809Y-166298571D01*
X73621428Y-166203333D01*
X73716666Y-166155714D01*
X73907142Y-166155714D01*
X74002380Y-166203333D01*
X74050000Y-166298571D01*
X74050000Y-166393809D01*
X73573809Y-166489047D01*
X74430952Y-166774761D02*
X74526190Y-166822380D01*
X74716666Y-166822380D01*
X74811904Y-166774761D01*
X74859523Y-166679523D01*
X74859523Y-166631904D01*
X74811904Y-166536666D01*
X74716666Y-166489047D01*
X74573809Y-166489047D01*
X74478571Y-166441428D01*
X74430952Y-166346190D01*
X74430952Y-166298571D01*
X74478571Y-166203333D01*
X74573809Y-166155714D01*
X74716666Y-166155714D01*
X74811904Y-166203333D01*
X75288095Y-166822380D02*
X75288095Y-166155714D01*
X75288095Y-165822380D02*
X75240476Y-165870000D01*
X75288095Y-165917619D01*
X75335714Y-165870000D01*
X75288095Y-165822380D01*
X75288095Y-165917619D01*
X76192857Y-166155714D02*
X76192857Y-166965238D01*
X76145238Y-167060476D01*
X76097619Y-167108095D01*
X76002380Y-167155714D01*
X75859523Y-167155714D01*
X75764285Y-167108095D01*
X76192857Y-166774761D02*
X76097619Y-166822380D01*
X75907142Y-166822380D01*
X75811904Y-166774761D01*
X75764285Y-166727142D01*
X75716666Y-166631904D01*
X75716666Y-166346190D01*
X75764285Y-166250952D01*
X75811904Y-166203333D01*
X75907142Y-166155714D01*
X76097619Y-166155714D01*
X76192857Y-166203333D01*
X76669047Y-166155714D02*
X76669047Y-166822380D01*
X76669047Y-166250952D02*
X76716666Y-166203333D01*
X76811904Y-166155714D01*
X76954761Y-166155714D01*
X77050000Y-166203333D01*
X77097619Y-166298571D01*
X77097619Y-166822380D01*
X78335714Y-166822380D02*
X78335714Y-165822380D01*
X78573809Y-165822380D01*
X78716666Y-165870000D01*
X78811904Y-165965238D01*
X78859523Y-166060476D01*
X78907142Y-166250952D01*
X78907142Y-166393809D01*
X78859523Y-166584285D01*
X78811904Y-166679523D01*
X78716666Y-166774761D01*
X78573809Y-166822380D01*
X78335714Y-166822380D01*
X79764285Y-166822380D02*
X79764285Y-166298571D01*
X79716666Y-166203333D01*
X79621428Y-166155714D01*
X79430952Y-166155714D01*
X79335714Y-166203333D01*
X79764285Y-166774761D02*
X79669047Y-166822380D01*
X79430952Y-166822380D01*
X79335714Y-166774761D01*
X79288095Y-166679523D01*
X79288095Y-166584285D01*
X79335714Y-166489047D01*
X79430952Y-166441428D01*
X79669047Y-166441428D01*
X79764285Y-166393809D01*
X80097619Y-166155714D02*
X80478571Y-166155714D01*
X80240476Y-165822380D02*
X80240476Y-166679523D01*
X80288095Y-166774761D01*
X80383333Y-166822380D01*
X80478571Y-166822380D01*
X81192857Y-166774761D02*
X81097619Y-166822380D01*
X80907142Y-166822380D01*
X80811904Y-166774761D01*
X80764285Y-166679523D01*
X80764285Y-166298571D01*
X80811904Y-166203333D01*
X80907142Y-166155714D01*
X81097619Y-166155714D01*
X81192857Y-166203333D01*
X81240476Y-166298571D01*
X81240476Y-166393809D01*
X80764285Y-166489047D01*
X82430952Y-166822380D02*
X82430952Y-165822380D01*
X82764285Y-166536666D01*
X83097619Y-165822380D01*
X83097619Y-166822380D01*
X84002380Y-166822380D02*
X84002380Y-166298571D01*
X83954761Y-166203333D01*
X83859523Y-166155714D01*
X83669047Y-166155714D01*
X83573809Y-166203333D01*
X84002380Y-166774761D02*
X83907142Y-166822380D01*
X83669047Y-166822380D01*
X83573809Y-166774761D01*
X83526190Y-166679523D01*
X83526190Y-166584285D01*
X83573809Y-166489047D01*
X83669047Y-166441428D01*
X83907142Y-166441428D01*
X84002380Y-166393809D01*
X84383333Y-166155714D02*
X84621428Y-166822380D01*
X84859523Y-166155714D02*
X84621428Y-166822380D01*
X84526190Y-167060476D01*
X84478571Y-167108095D01*
X84383333Y-167155714D01*
X85954761Y-165917619D02*
X86002380Y-165870000D01*
X86097619Y-165822380D01*
X86335714Y-165822380D01*
X86430952Y-165870000D01*
X86478571Y-165917619D01*
X86526190Y-166012857D01*
X86526190Y-166108095D01*
X86478571Y-166250952D01*
X85907142Y-166822380D01*
X86526190Y-166822380D01*
X87383333Y-165822380D02*
X87192857Y-165822380D01*
X87097619Y-165870000D01*
X87050000Y-165917619D01*
X86954761Y-166060476D01*
X86907142Y-166250952D01*
X86907142Y-166631904D01*
X86954761Y-166727142D01*
X87002380Y-166774761D01*
X87097619Y-166822380D01*
X87288095Y-166822380D01*
X87383333Y-166774761D01*
X87430952Y-166727142D01*
X87478571Y-166631904D01*
X87478571Y-166393809D01*
X87430952Y-166298571D01*
X87383333Y-166250952D01*
X87288095Y-166203333D01*
X87097619Y-166203333D01*
X87002380Y-166250952D01*
X86954761Y-166298571D01*
X86907142Y-166393809D01*
X87954761Y-166774761D02*
X87954761Y-166822380D01*
X87907142Y-166917619D01*
X87859523Y-166965238D01*
X89097619Y-165917619D02*
X89145238Y-165870000D01*
X89240476Y-165822380D01*
X89478571Y-165822380D01*
X89573809Y-165870000D01*
X89621428Y-165917619D01*
X89669047Y-166012857D01*
X89669047Y-166108095D01*
X89621428Y-166250952D01*
X89049999Y-166822380D01*
X89669047Y-166822380D01*
X90288095Y-165822380D02*
X90383333Y-165822380D01*
X90478571Y-165870000D01*
X90526190Y-165917619D01*
X90573809Y-166012857D01*
X90621428Y-166203333D01*
X90621428Y-166441428D01*
X90573809Y-166631904D01*
X90526190Y-166727142D01*
X90478571Y-166774761D01*
X90383333Y-166822380D01*
X90288095Y-166822380D01*
X90192857Y-166774761D01*
X90145238Y-166727142D01*
X90097619Y-166631904D01*
X90049999Y-166441428D01*
X90049999Y-166203333D01*
X90097619Y-166012857D01*
X90145238Y-165917619D01*
X90192857Y-165870000D01*
X90288095Y-165822380D01*
X91002380Y-165917619D02*
X91049999Y-165870000D01*
X91145238Y-165822380D01*
X91383333Y-165822380D01*
X91478571Y-165870000D01*
X91526190Y-165917619D01*
X91573809Y-166012857D01*
X91573809Y-166108095D01*
X91526190Y-166250952D01*
X90954761Y-166822380D01*
X91573809Y-166822380D01*
X92192857Y-165822380D02*
X92288095Y-165822380D01*
X92383333Y-165870000D01*
X92430952Y-165917619D01*
X92478571Y-166012857D01*
X92526190Y-166203333D01*
X92526190Y-166441428D01*
X92478571Y-166631904D01*
X92430952Y-166727142D01*
X92383333Y-166774761D01*
X92288095Y-166822380D01*
X92192857Y-166822380D01*
X92097619Y-166774761D01*
X92049999Y-166727142D01*
X92002380Y-166631904D01*
X91954761Y-166441428D01*
X91954761Y-166203333D01*
X92002380Y-166012857D01*
X92049999Y-165917619D01*
X92097619Y-165870000D01*
X92192857Y-165822380D01*
X72930952Y-164282380D02*
X72930952Y-163282380D01*
X73169047Y-163282380D01*
X73311904Y-163330000D01*
X73407142Y-163425238D01*
X73454761Y-163520476D01*
X73502380Y-163710952D01*
X73502380Y-163853809D01*
X73454761Y-164044285D01*
X73407142Y-164139523D01*
X73311904Y-164234761D01*
X73169047Y-164282380D01*
X72930952Y-164282380D01*
X74311904Y-164234761D02*
X74216666Y-164282380D01*
X74026190Y-164282380D01*
X73930952Y-164234761D01*
X73883333Y-164139523D01*
X73883333Y-163758571D01*
X73930952Y-163663333D01*
X74026190Y-163615714D01*
X74216666Y-163615714D01*
X74311904Y-163663333D01*
X74359523Y-163758571D01*
X74359523Y-163853809D01*
X73883333Y-163949047D01*
X74740476Y-164234761D02*
X74835714Y-164282380D01*
X75026190Y-164282380D01*
X75121428Y-164234761D01*
X75169047Y-164139523D01*
X75169047Y-164091904D01*
X75121428Y-163996666D01*
X75026190Y-163949047D01*
X74883333Y-163949047D01*
X74788095Y-163901428D01*
X74740476Y-163806190D01*
X74740476Y-163758571D01*
X74788095Y-163663333D01*
X74883333Y-163615714D01*
X75026190Y-163615714D01*
X75121428Y-163663333D01*
X75597619Y-164282380D02*
X75597619Y-163615714D01*
X75597619Y-163282380D02*
X75549999Y-163330000D01*
X75597619Y-163377619D01*
X75645238Y-163330000D01*
X75597619Y-163282380D01*
X75597619Y-163377619D01*
X76502380Y-163615714D02*
X76502380Y-164425238D01*
X76454761Y-164520476D01*
X76407142Y-164568095D01*
X76311904Y-164615714D01*
X76169047Y-164615714D01*
X76073809Y-164568095D01*
X76502380Y-164234761D02*
X76407142Y-164282380D01*
X76216666Y-164282380D01*
X76121428Y-164234761D01*
X76073809Y-164187142D01*
X76026190Y-164091904D01*
X76026190Y-163806190D01*
X76073809Y-163710952D01*
X76121428Y-163663333D01*
X76216666Y-163615714D01*
X76407142Y-163615714D01*
X76502380Y-163663333D01*
X76978571Y-163615714D02*
X76978571Y-164282380D01*
X76978571Y-163710952D02*
X77026190Y-163663333D01*
X77121428Y-163615714D01*
X77264285Y-163615714D01*
X77359523Y-163663333D01*
X77407142Y-163758571D01*
X77407142Y-164282380D01*
X78264285Y-164234761D02*
X78169047Y-164282380D01*
X77978571Y-164282380D01*
X77883333Y-164234761D01*
X77835714Y-164139523D01*
X77835714Y-163758571D01*
X77883333Y-163663333D01*
X77978571Y-163615714D01*
X78169047Y-163615714D01*
X78264285Y-163663333D01*
X78311904Y-163758571D01*
X78311904Y-163853809D01*
X77835714Y-163949047D01*
X79169047Y-164282380D02*
X79169047Y-163282380D01*
X79169047Y-164234761D02*
X79073809Y-164282380D01*
X78883333Y-164282380D01*
X78788095Y-164234761D01*
X78740476Y-164187142D01*
X78692857Y-164091904D01*
X78692857Y-163806190D01*
X78740476Y-163710952D01*
X78788095Y-163663333D01*
X78883333Y-163615714D01*
X79073809Y-163615714D01*
X79169047Y-163663333D01*
X80407142Y-164282380D02*
X80407142Y-163282380D01*
X80407142Y-163663333D02*
X80502380Y-163615714D01*
X80692857Y-163615714D01*
X80788095Y-163663333D01*
X80835714Y-163710952D01*
X80883333Y-163806190D01*
X80883333Y-164091904D01*
X80835714Y-164187142D01*
X80788095Y-164234761D01*
X80692857Y-164282380D01*
X80502380Y-164282380D01*
X80407142Y-164234761D01*
X81216666Y-163615714D02*
X81454761Y-164282380D01*
X81692857Y-163615714D02*
X81454761Y-164282380D01*
X81359523Y-164520476D01*
X81311904Y-164568095D01*
X81216666Y-164615714D01*
X83169047Y-163758571D02*
X82835714Y-163758571D01*
X82835714Y-164282380D02*
X82835714Y-163282380D01*
X83311904Y-163282380D01*
X83692857Y-164282380D02*
X83692857Y-163615714D01*
X83692857Y-163806190D02*
X83740476Y-163710952D01*
X83788095Y-163663333D01*
X83883333Y-163615714D01*
X83978571Y-163615714D01*
X84740476Y-164282380D02*
X84740476Y-163758571D01*
X84692857Y-163663333D01*
X84597619Y-163615714D01*
X84407142Y-163615714D01*
X84311904Y-163663333D01*
X84740476Y-164234761D02*
X84645238Y-164282380D01*
X84407142Y-164282380D01*
X84311904Y-164234761D01*
X84264285Y-164139523D01*
X84264285Y-164044285D01*
X84311904Y-163949047D01*
X84407142Y-163901428D01*
X84645238Y-163901428D01*
X84740476Y-163853809D01*
X85216666Y-163615714D02*
X85216666Y-164282380D01*
X85216666Y-163710952D02*
X85264285Y-163663333D01*
X85359523Y-163615714D01*
X85502380Y-163615714D01*
X85597619Y-163663333D01*
X85645238Y-163758571D01*
X85645238Y-164282380D01*
X86121428Y-164282380D02*
X86121428Y-163282380D01*
X86216666Y-163901428D02*
X86502380Y-164282380D01*
X86502380Y-163615714D02*
X86121428Y-163996666D01*
X88264285Y-164282380D02*
X87930952Y-163806190D01*
X87692857Y-164282380D02*
X87692857Y-163282380D01*
X88073809Y-163282380D01*
X88169047Y-163330000D01*
X88216666Y-163377619D01*
X88264285Y-163472857D01*
X88264285Y-163615714D01*
X88216666Y-163710952D01*
X88169047Y-163758571D01*
X88073809Y-163806190D01*
X87692857Y-163806190D01*
X89121428Y-163615714D02*
X89121428Y-164282380D01*
X88692857Y-163615714D02*
X88692857Y-164139523D01*
X88740476Y-164234761D01*
X88835714Y-164282380D01*
X88978571Y-164282380D01*
X89073809Y-164234761D01*
X89121428Y-164187142D01*
X90026190Y-164282380D02*
X90026190Y-163282380D01*
X90026190Y-164234761D02*
X89930952Y-164282380D01*
X89740476Y-164282380D01*
X89645238Y-164234761D01*
X89597619Y-164187142D01*
X89550000Y-164091904D01*
X89550000Y-163806190D01*
X89597619Y-163710952D01*
X89645238Y-163663333D01*
X89740476Y-163615714D01*
X89930952Y-163615714D01*
X90026190Y-163663333D01*
X90645238Y-164282380D02*
X90550000Y-164234761D01*
X90502380Y-164139523D01*
X90502380Y-163282380D01*
X91407142Y-164234761D02*
X91311904Y-164282380D01*
X91121428Y-164282380D01*
X91026190Y-164234761D01*
X90978571Y-164139523D01*
X90978571Y-163758571D01*
X91026190Y-163663333D01*
X91121428Y-163615714D01*
X91311904Y-163615714D01*
X91407142Y-163663333D01*
X91454761Y-163758571D01*
X91454761Y-163853809D01*
X90978571Y-163949047D01*
X91788095Y-163615714D02*
X92026190Y-164282380D01*
X92264285Y-163615714D02*
X92026190Y-164282380D01*
X91930952Y-164520476D01*
X91883333Y-164568095D01*
X91788095Y-164615714D01*
X73184285Y-161170952D02*
X73089047Y-161123333D01*
X73041428Y-161075714D01*
X72993809Y-160980476D01*
X72993809Y-160932857D01*
X73041428Y-160837619D01*
X73089047Y-160790000D01*
X73184285Y-160742380D01*
X73374761Y-160742380D01*
X73470000Y-160790000D01*
X73517619Y-160837619D01*
X73565238Y-160932857D01*
X73565238Y-160980476D01*
X73517619Y-161075714D01*
X73470000Y-161123333D01*
X73374761Y-161170952D01*
X73184285Y-161170952D01*
X73089047Y-161218571D01*
X73041428Y-161266190D01*
X72993809Y-161361428D01*
X72993809Y-161551904D01*
X73041428Y-161647142D01*
X73089047Y-161694761D01*
X73184285Y-161742380D01*
X73374761Y-161742380D01*
X73470000Y-161694761D01*
X73517619Y-161647142D01*
X73565238Y-161551904D01*
X73565238Y-161361428D01*
X73517619Y-161266190D01*
X73470000Y-161218571D01*
X73374761Y-161170952D01*
X74184285Y-160742380D02*
X74279523Y-160742380D01*
X74374761Y-160790000D01*
X74422380Y-160837619D01*
X74470000Y-160932857D01*
X74517619Y-161123333D01*
X74517619Y-161361428D01*
X74470000Y-161551904D01*
X74422380Y-161647142D01*
X74374761Y-161694761D01*
X74279523Y-161742380D01*
X74184285Y-161742380D01*
X74089047Y-161694761D01*
X74041428Y-161647142D01*
X73993809Y-161551904D01*
X73946190Y-161361428D01*
X73946190Y-161123333D01*
X73993809Y-160932857D01*
X74041428Y-160837619D01*
X74089047Y-160790000D01*
X74184285Y-160742380D01*
X74850952Y-160742380D02*
X75470000Y-160742380D01*
X75136666Y-161123333D01*
X75279523Y-161123333D01*
X75374761Y-161170952D01*
X75422380Y-161218571D01*
X75470000Y-161313809D01*
X75470000Y-161551904D01*
X75422380Y-161647142D01*
X75374761Y-161694761D01*
X75279523Y-161742380D01*
X74993809Y-161742380D01*
X74898571Y-161694761D01*
X74850952Y-161647142D01*
X76422380Y-161742380D02*
X75850952Y-161742380D01*
X76136666Y-161742380D02*
X76136666Y-160742380D01*
X76041428Y-160885238D01*
X75946190Y-160980476D01*
X75850952Y-161028095D01*
X76850952Y-161361428D02*
X77612857Y-161361428D01*
X78041428Y-161694761D02*
X78136666Y-161742380D01*
X78327142Y-161742380D01*
X78422380Y-161694761D01*
X78470000Y-161599523D01*
X78470000Y-161551904D01*
X78422380Y-161456666D01*
X78327142Y-161409047D01*
X78184285Y-161409047D01*
X78089047Y-161361428D01*
X78041428Y-161266190D01*
X78041428Y-161218571D01*
X78089047Y-161123333D01*
X78184285Y-161075714D01*
X78327142Y-161075714D01*
X78422380Y-161123333D01*
X78803333Y-161075714D02*
X79041428Y-161742380D01*
X79279523Y-161075714D02*
X79041428Y-161742380D01*
X78946190Y-161980476D01*
X78898571Y-162028095D01*
X78803333Y-162075714D01*
X79612857Y-161694761D02*
X79708095Y-161742380D01*
X79898571Y-161742380D01*
X79993809Y-161694761D01*
X80041428Y-161599523D01*
X80041428Y-161551904D01*
X79993809Y-161456666D01*
X79898571Y-161409047D01*
X79755714Y-161409047D01*
X79660476Y-161361428D01*
X79612857Y-161266190D01*
X79612857Y-161218571D01*
X79660476Y-161123333D01*
X79755714Y-161075714D01*
X79898571Y-161075714D01*
X79993809Y-161123333D01*
X80660476Y-160742380D02*
X80755714Y-160742380D01*
X80850952Y-160790000D01*
X80898571Y-160837619D01*
X80946190Y-160932857D01*
X80993809Y-161123333D01*
X80993809Y-161361428D01*
X80946190Y-161551904D01*
X80898571Y-161647142D01*
X80850952Y-161694761D01*
X80755714Y-161742380D01*
X80660476Y-161742380D01*
X80565238Y-161694761D01*
X80517619Y-161647142D01*
X80470000Y-161551904D01*
X80422380Y-161361428D01*
X80422380Y-161123333D01*
X80470000Y-160932857D01*
X80517619Y-160837619D01*
X80565238Y-160790000D01*
X80660476Y-160742380D01*
X81850952Y-160742380D02*
X81660476Y-160742380D01*
X81565238Y-160790000D01*
X81517619Y-160837619D01*
X81422380Y-160980476D01*
X81374761Y-161170952D01*
X81374761Y-161551904D01*
X81422380Y-161647142D01*
X81470000Y-161694761D01*
X81565238Y-161742380D01*
X81755714Y-161742380D01*
X81850952Y-161694761D01*
X81898571Y-161647142D01*
X81946190Y-161551904D01*
X81946190Y-161313809D01*
X81898571Y-161218571D01*
X81850952Y-161170952D01*
X81755714Y-161123333D01*
X81565238Y-161123333D01*
X81470000Y-161170952D01*
X81422380Y-161218571D01*
X81374761Y-161313809D01*
D11*
X112500000Y-170630000D02*
X112500000Y-166530000D01*
X112500000Y-166530000D02*
X114510000Y-166530000D01*
X114510000Y-166530000D02*
X114510000Y-157690000D01*
X114510000Y-157690000D02*
X127710000Y-157690000D01*
X127710000Y-157690000D02*
X127710000Y-166530000D01*
X127710000Y-166530000D02*
X129720000Y-166530000D01*
X129720000Y-166530000D02*
X129720000Y-170630000D01*
X115320000Y-156995662D02*
X115820000Y-156995662D01*
X115820000Y-156995662D02*
X115570000Y-157428675D01*
X115570000Y-157428675D02*
X115320000Y-156995662D01*
X72120000Y-65980000D02*
G75*
G02X70120000Y-65980000I-1000000J0D01*
G01*
X70120000Y-65980000D02*
X65060000Y-65980000D01*
X65060000Y-65980000D02*
X65060000Y-116900000D01*
X65060000Y-116900000D02*
X77180000Y-116900000D01*
X77180000Y-116900000D02*
X77180000Y-65980000D01*
X77180000Y-65980000D02*
X72120000Y-65980000D01*
X91150000Y-65980000D02*
X89900000Y-65980000D01*
X91150000Y-91500000D02*
X91150000Y-65980000D01*
X86650000Y-91500000D02*
X91150000Y-91500000D01*
X86650000Y-65980000D02*
X86650000Y-91500000D01*
X87900000Y-65980000D02*
X86650000Y-65980000D01*
X89900000Y-65980000D02*
G75*
G02X87900000Y-65980000I-1000000J0D01*
G01*
X107680000Y-65980000D02*
G75*
G02X105680000Y-65980000I-1000000J0D01*
G01*
X105680000Y-65980000D02*
X100620000Y-65980000D01*
X100620000Y-65980000D02*
X100620000Y-96580000D01*
X100620000Y-96580000D02*
X112740000Y-96580000D01*
X112740000Y-96580000D02*
X112740000Y-65980000D01*
X112740000Y-65980000D02*
X107680000Y-65980000D01*
X134330000Y-65980000D02*
X129270000Y-65980000D01*
X134330000Y-96580000D02*
X134330000Y-65980000D01*
X122210000Y-96580000D02*
X134330000Y-96580000D01*
X122210000Y-65980000D02*
X122210000Y-96580000D01*
X127270000Y-65980000D02*
X122210000Y-65980000D01*
X129270000Y-65980000D02*
G75*
G02X127270000Y-65980000I-1000000J0D01*
G01*
X89900000Y-95190000D02*
G75*
G02X87900000Y-95190000I-1000000J0D01*
G01*
X87900000Y-95190000D02*
X86650000Y-95190000D01*
X86650000Y-95190000D02*
X86650000Y-115630000D01*
X86650000Y-115630000D02*
X91150000Y-115630000D01*
X91150000Y-115630000D02*
X91150000Y-95190000D01*
X91150000Y-95190000D02*
X89900000Y-95190000D01*
X107680000Y-100270000D02*
G75*
G02X105680000Y-100270000I-1000000J0D01*
G01*
X105680000Y-100270000D02*
X100620000Y-100270000D01*
X100620000Y-100270000D02*
X100620000Y-135950000D01*
X100620000Y-135950000D02*
X112740000Y-135950000D01*
X112740000Y-135950000D02*
X112740000Y-100270000D01*
X112740000Y-100270000D02*
X107680000Y-100270000D01*
X134330000Y-100270000D02*
X129270000Y-100270000D01*
X134330000Y-135950000D02*
X134330000Y-100270000D01*
X122210000Y-135950000D02*
X134330000Y-135950000D01*
X122210000Y-100270000D02*
X122210000Y-135950000D01*
X127270000Y-100270000D02*
X122210000Y-100270000D01*
X129270000Y-100270000D02*
G75*
G02X127270000Y-100270000I-1000000J0D01*
G01*
X91150000Y-119320000D02*
X89900000Y-119320000D01*
X91150000Y-139760000D02*
X91150000Y-119320000D01*
X86650000Y-139760000D02*
X91150000Y-139760000D01*
X86650000Y-119320000D02*
X86650000Y-139760000D01*
X87900000Y-119320000D02*
X86650000Y-119320000D01*
X89900000Y-119320000D02*
G75*
G02X87900000Y-119320000I-1000000J0D01*
G01*
X73600000Y-150130000D02*
G75*
G02X73600000Y-152130000I0J-1000000D01*
G01*
X73600000Y-152130000D02*
X73600000Y-153380000D01*
X73600000Y-153380000D02*
X99120000Y-153380000D01*
X99120000Y-153380000D02*
X99120000Y-148880000D01*
X99120000Y-148880000D02*
X73600000Y-148880000D01*
X73600000Y-148880000D02*
X73600000Y-150130000D01*
X61860000Y-120800000D02*
X65100000Y-120800000D01*
X61860000Y-123040000D02*
X65100000Y-123040000D01*
X61860000Y-120800000D02*
X61860000Y-120865000D01*
X61860000Y-122975000D02*
X61860000Y-123040000D01*
X65100000Y-120800000D02*
X65100000Y-120865000D01*
X65100000Y-122975000D02*
X65100000Y-123040000D01*
X81610000Y-122975000D02*
X81610000Y-123040000D01*
X81610000Y-120800000D02*
X81610000Y-120865000D01*
X78370000Y-122975000D02*
X78370000Y-123040000D01*
X78370000Y-120800000D02*
X78370000Y-120865000D01*
X78370000Y-123040000D02*
X81610000Y-123040000D01*
X78370000Y-120800000D02*
X81610000Y-120800000D01*
X137220000Y-142300000D02*
X137220000Y-139640000D01*
X101600000Y-142300000D02*
X137220000Y-142300000D01*
X101600000Y-139640000D02*
X137220000Y-139640000D01*
X101600000Y-142300000D02*
X101600000Y-139640000D01*
X100330000Y-142300000D02*
X99000000Y-142300000D01*
X99000000Y-142300000D02*
X99000000Y-140970000D01*
X64120000Y-138780000D02*
X64120000Y-140620000D01*
X64120000Y-140620000D02*
X67960000Y-140620000D01*
X67960000Y-140620000D02*
X67960000Y-138780000D01*
X67960000Y-138780000D02*
X64120000Y-138780000D01*
X63170000Y-139700000D02*
X64120000Y-139700000D01*
X68910000Y-139700000D02*
X67960000Y-139700000D01*
X49260000Y-137100000D02*
G75*
G02X47260000Y-137100000I-1000000J0D01*
G01*
X47260000Y-137100000D02*
X46010000Y-137100000D01*
X46010000Y-137100000D02*
X46010000Y-147380000D01*
X46010000Y-147380000D02*
X50510000Y-147380000D01*
X50510000Y-147380000D02*
X50510000Y-137100000D01*
X50510000Y-137100000D02*
X49260000Y-137100000D01*
X69400000Y-120070000D02*
X74100000Y-120070000D01*
X69400000Y-123770000D02*
X74100000Y-123770000D01*
X69400000Y-123770000D02*
G75*
G02X69400000Y-120070000I0J1850000D01*
G01*
X74100000Y-123770000D02*
G75*
G03X74100000Y-120070000I0J1850000D01*
G01*
X43120000Y-65980000D02*
X44450000Y-65980000D01*
X43120000Y-67310000D02*
X43120000Y-65980000D01*
X43120000Y-68580000D02*
X45780000Y-68580000D01*
X45780000Y-68580000D02*
X45780000Y-86420000D01*
X43120000Y-68580000D02*
X43120000Y-86420000D01*
X43120000Y-86420000D02*
X45780000Y-86420000D01*
X49470000Y-106740000D02*
X52130000Y-106740000D01*
X49470000Y-68580000D02*
X49470000Y-106740000D01*
X52130000Y-68580000D02*
X52130000Y-106740000D01*
X49470000Y-68580000D02*
X52130000Y-68580000D01*
X49470000Y-67310000D02*
X49470000Y-65980000D01*
X49470000Y-65980000D02*
X50800000Y-65980000D01*
X43120000Y-132140000D02*
X45780000Y-132140000D01*
X43120000Y-114300000D02*
X43120000Y-132140000D01*
X45780000Y-114300000D02*
X45780000Y-132140000D01*
X43120000Y-114300000D02*
X45780000Y-114300000D01*
X43120000Y-113030000D02*
X43120000Y-111700000D01*
X43120000Y-111700000D02*
X44450000Y-111700000D01*
X55820000Y-110550000D02*
X58480000Y-110550000D01*
X55820000Y-92710000D02*
X55820000Y-110550000D01*
X58480000Y-92710000D02*
X58480000Y-110550000D01*
X55820000Y-92710000D02*
X58480000Y-92710000D01*
X55820000Y-91440000D02*
X55820000Y-90110000D01*
X55820000Y-90110000D02*
X57150000Y-90110000D01*
X55820000Y-65980000D02*
X57150000Y-65980000D01*
X55820000Y-67310000D02*
X55820000Y-65980000D01*
X55820000Y-68580000D02*
X58480000Y-68580000D01*
X58480000Y-68580000D02*
X58480000Y-86420000D01*
X55820000Y-68580000D02*
X55820000Y-86420000D01*
X55820000Y-86420000D02*
X58480000Y-86420000D01*
X45780000Y-91380000D02*
X43120000Y-91380000D01*
X45780000Y-93980000D02*
X45780000Y-91380000D01*
X43120000Y-93980000D02*
X43120000Y-91380000D01*
X45780000Y-93980000D02*
X43120000Y-93980000D01*
X45780000Y-95250000D02*
X45780000Y-96580000D01*
X45780000Y-96580000D02*
X44450000Y-96580000D01*
X55012335Y-162751392D02*
G75*
G03X51780000Y-162594484I-1672335J-1078608D01*
G01*
X55012335Y-164908608D02*
G75*
G02X51780000Y-165065516I-1672335J1078608D01*
G01*
X54381130Y-162750163D02*
G75*
G03X52299039Y-162750000I-1041130J-1079837D01*
G01*
X54381130Y-164909837D02*
G75*
G02X52299039Y-164910000I-1041130J1079837D01*
G01*
X51780000Y-162594000D02*
X51780000Y-162750000D01*
X51780000Y-164910000D02*
X51780000Y-165066000D01*
X50740000Y-132140000D02*
X53400000Y-132140000D01*
X50740000Y-114300000D02*
X50740000Y-132140000D01*
X53400000Y-114300000D02*
X53400000Y-132140000D01*
X50740000Y-114300000D02*
X53400000Y-114300000D01*
X50740000Y-113030000D02*
X50740000Y-111700000D01*
X50740000Y-111700000D02*
X52070000Y-111700000D01*
X60040000Y-165750000D02*
X61880000Y-165750000D01*
X61880000Y-165750000D02*
X61880000Y-161910000D01*
X61880000Y-161910000D02*
X60040000Y-161910000D01*
X60040000Y-161910000D02*
X60040000Y-165750000D01*
X60960000Y-166700000D02*
X60960000Y-165750000D01*
X60960000Y-160960000D02*
X60960000Y-161910000D01*
D12*
X44653200Y-154870400D02*
X44403200Y-154870400D01*
X50342800Y-159232600D02*
X45050000Y-159222800D01*
X50759200Y-154874800D02*
X50759200Y-156970000D01*
X44653200Y-154863800D02*
X44653200Y-156972000D01*
X45650000Y-152628600D02*
X50317400Y-152628600D01*
D11*
X68640000Y-148590000D02*
G75*
G03X68640000Y-148590000I-2620000J0D01*
G01*
X66020000Y-146010000D02*
X66020000Y-151170000D01*
X66060000Y-146010000D02*
X66060000Y-151170000D01*
X66100000Y-146011000D02*
X66100000Y-151169000D01*
X66140000Y-146012000D02*
X66140000Y-151168000D01*
X66180000Y-146014000D02*
X66180000Y-151166000D01*
X66220000Y-146017000D02*
X66220000Y-151163000D01*
X66260000Y-146021000D02*
X66260000Y-147550000D01*
X66260000Y-149630000D02*
X66260000Y-151159000D01*
X66300000Y-146025000D02*
X66300000Y-147550000D01*
X66300000Y-149630000D02*
X66300000Y-151155000D01*
X66340000Y-146029000D02*
X66340000Y-147550000D01*
X66340000Y-149630000D02*
X66340000Y-151151000D01*
X66380000Y-146034000D02*
X66380000Y-147550000D01*
X66380000Y-149630000D02*
X66380000Y-151146000D01*
X66420000Y-146040000D02*
X66420000Y-147550000D01*
X66420000Y-149630000D02*
X66420000Y-151140000D01*
X66460000Y-146047000D02*
X66460000Y-147550000D01*
X66460000Y-149630000D02*
X66460000Y-151133000D01*
X66500000Y-146054000D02*
X66500000Y-147550000D01*
X66500000Y-149630000D02*
X66500000Y-151126000D01*
X66540000Y-146062000D02*
X66540000Y-147550000D01*
X66540000Y-149630000D02*
X66540000Y-151118000D01*
X66580000Y-146070000D02*
X66580000Y-147550000D01*
X66580000Y-149630000D02*
X66580000Y-151110000D01*
X66620000Y-146079000D02*
X66620000Y-147550000D01*
X66620000Y-149630000D02*
X66620000Y-151101000D01*
X66660000Y-146089000D02*
X66660000Y-147550000D01*
X66660000Y-149630000D02*
X66660000Y-151091000D01*
X66700000Y-146099000D02*
X66700000Y-147550000D01*
X66700000Y-149630000D02*
X66700000Y-151081000D01*
X66741000Y-146110000D02*
X66741000Y-147550000D01*
X66741000Y-149630000D02*
X66741000Y-151070000D01*
X66781000Y-146122000D02*
X66781000Y-147550000D01*
X66781000Y-149630000D02*
X66781000Y-151058000D01*
X66821000Y-146135000D02*
X66821000Y-147550000D01*
X66821000Y-149630000D02*
X66821000Y-151045000D01*
X66861000Y-146148000D02*
X66861000Y-147550000D01*
X66861000Y-149630000D02*
X66861000Y-151032000D01*
X66901000Y-146162000D02*
X66901000Y-147550000D01*
X66901000Y-149630000D02*
X66901000Y-151018000D01*
X66941000Y-146176000D02*
X66941000Y-147550000D01*
X66941000Y-149630000D02*
X66941000Y-151004000D01*
X66981000Y-146192000D02*
X66981000Y-147550000D01*
X66981000Y-149630000D02*
X66981000Y-150988000D01*
X67021000Y-146208000D02*
X67021000Y-147550000D01*
X67021000Y-149630000D02*
X67021000Y-150972000D01*
X67061000Y-146225000D02*
X67061000Y-147550000D01*
X67061000Y-149630000D02*
X67061000Y-150955000D01*
X67101000Y-146242000D02*
X67101000Y-147550000D01*
X67101000Y-149630000D02*
X67101000Y-150938000D01*
X67141000Y-146261000D02*
X67141000Y-147550000D01*
X67141000Y-149630000D02*
X67141000Y-150919000D01*
X67181000Y-146280000D02*
X67181000Y-147550000D01*
X67181000Y-149630000D02*
X67181000Y-150900000D01*
X67221000Y-146300000D02*
X67221000Y-147550000D01*
X67221000Y-149630000D02*
X67221000Y-150880000D01*
X67261000Y-146322000D02*
X67261000Y-147550000D01*
X67261000Y-149630000D02*
X67261000Y-150858000D01*
X67301000Y-146343000D02*
X67301000Y-147550000D01*
X67301000Y-149630000D02*
X67301000Y-150837000D01*
X67341000Y-146366000D02*
X67341000Y-147550000D01*
X67341000Y-149630000D02*
X67341000Y-150814000D01*
X67381000Y-146390000D02*
X67381000Y-147550000D01*
X67381000Y-149630000D02*
X67381000Y-150790000D01*
X67421000Y-146415000D02*
X67421000Y-147550000D01*
X67421000Y-149630000D02*
X67421000Y-150765000D01*
X67461000Y-146441000D02*
X67461000Y-147550000D01*
X67461000Y-149630000D02*
X67461000Y-150739000D01*
X67501000Y-146468000D02*
X67501000Y-147550000D01*
X67501000Y-149630000D02*
X67501000Y-150712000D01*
X67541000Y-146495000D02*
X67541000Y-147550000D01*
X67541000Y-149630000D02*
X67541000Y-150685000D01*
X67581000Y-146525000D02*
X67581000Y-147550000D01*
X67581000Y-149630000D02*
X67581000Y-150655000D01*
X67621000Y-146555000D02*
X67621000Y-147550000D01*
X67621000Y-149630000D02*
X67621000Y-150625000D01*
X67661000Y-146586000D02*
X67661000Y-147550000D01*
X67661000Y-149630000D02*
X67661000Y-150594000D01*
X67701000Y-146619000D02*
X67701000Y-147550000D01*
X67701000Y-149630000D02*
X67701000Y-150561000D01*
X67741000Y-146653000D02*
X67741000Y-147550000D01*
X67741000Y-149630000D02*
X67741000Y-150527000D01*
X67781000Y-146689000D02*
X67781000Y-147550000D01*
X67781000Y-149630000D02*
X67781000Y-150491000D01*
X67821000Y-146726000D02*
X67821000Y-147550000D01*
X67821000Y-149630000D02*
X67821000Y-150454000D01*
X67861000Y-146764000D02*
X67861000Y-147550000D01*
X67861000Y-149630000D02*
X67861000Y-150416000D01*
X67901000Y-146805000D02*
X67901000Y-147550000D01*
X67901000Y-149630000D02*
X67901000Y-150375000D01*
X67941000Y-146847000D02*
X67941000Y-147550000D01*
X67941000Y-149630000D02*
X67941000Y-150333000D01*
X67981000Y-146891000D02*
X67981000Y-147550000D01*
X67981000Y-149630000D02*
X67981000Y-150289000D01*
X68021000Y-146937000D02*
X68021000Y-147550000D01*
X68021000Y-149630000D02*
X68021000Y-150243000D01*
X68061000Y-146985000D02*
X68061000Y-147550000D01*
X68061000Y-149630000D02*
X68061000Y-150195000D01*
X68101000Y-147036000D02*
X68101000Y-147550000D01*
X68101000Y-149630000D02*
X68101000Y-150144000D01*
X68141000Y-147090000D02*
X68141000Y-147550000D01*
X68141000Y-149630000D02*
X68141000Y-150090000D01*
X68181000Y-147147000D02*
X68181000Y-147550000D01*
X68181000Y-149630000D02*
X68181000Y-150033000D01*
X68221000Y-147207000D02*
X68221000Y-147550000D01*
X68221000Y-149630000D02*
X68221000Y-149973000D01*
X68261000Y-147271000D02*
X68261000Y-147550000D01*
X68261000Y-149630000D02*
X68261000Y-149909000D01*
X68301000Y-147339000D02*
X68301000Y-147550000D01*
X68301000Y-149630000D02*
X68301000Y-149841000D01*
X68341000Y-147412000D02*
X68341000Y-149768000D01*
X68381000Y-147492000D02*
X68381000Y-149688000D01*
X68421000Y-147579000D02*
X68421000Y-149601000D01*
X68461000Y-147675000D02*
X68461000Y-149505000D01*
X68501000Y-147785000D02*
X68501000Y-149395000D01*
X68541000Y-147913000D02*
X68541000Y-149267000D01*
X68581000Y-148072000D02*
X68581000Y-149108000D01*
X68621000Y-148306000D02*
X68621000Y-148874000D01*
X63215225Y-147115000D02*
X63715225Y-147115000D01*
X63465225Y-146865000D02*
X63465225Y-147365000D01*
D10*
X120776666Y-156402380D02*
X120776666Y-157116666D01*
X120729047Y-157259523D01*
X120633809Y-157354761D01*
X120490952Y-157402380D01*
X120395714Y-157402380D01*
X121776666Y-157402380D02*
X121205238Y-157402380D01*
X121490952Y-157402380D02*
X121490952Y-156402380D01*
X121395714Y-156545238D01*
X121300476Y-156640476D01*
X121205238Y-156688095D01*
X70358095Y-64432380D02*
X70358095Y-65241904D01*
X70405714Y-65337142D01*
X70453333Y-65384761D01*
X70548571Y-65432380D01*
X70739047Y-65432380D01*
X70834285Y-65384761D01*
X70881904Y-65337142D01*
X70929523Y-65241904D01*
X70929523Y-64432380D01*
X71929523Y-65432380D02*
X71358095Y-65432380D01*
X71643809Y-65432380D02*
X71643809Y-64432380D01*
X71548571Y-64575238D01*
X71453333Y-64670476D01*
X71358095Y-64718095D01*
X88138095Y-64432380D02*
X88138095Y-65241904D01*
X88185714Y-65337142D01*
X88233333Y-65384761D01*
X88328571Y-65432380D01*
X88519047Y-65432380D01*
X88614285Y-65384761D01*
X88661904Y-65337142D01*
X88709523Y-65241904D01*
X88709523Y-64432380D01*
X89138095Y-64527619D02*
X89185714Y-64480000D01*
X89280952Y-64432380D01*
X89519047Y-64432380D01*
X89614285Y-64480000D01*
X89661904Y-64527619D01*
X89709523Y-64622857D01*
X89709523Y-64718095D01*
X89661904Y-64860952D01*
X89090476Y-65432380D01*
X89709523Y-65432380D01*
X105918095Y-64432380D02*
X105918095Y-65241904D01*
X105965714Y-65337142D01*
X106013333Y-65384761D01*
X106108571Y-65432380D01*
X106299047Y-65432380D01*
X106394285Y-65384761D01*
X106441904Y-65337142D01*
X106489523Y-65241904D01*
X106489523Y-64432380D01*
X106870476Y-64432380D02*
X107489523Y-64432380D01*
X107156190Y-64813333D01*
X107299047Y-64813333D01*
X107394285Y-64860952D01*
X107441904Y-64908571D01*
X107489523Y-65003809D01*
X107489523Y-65241904D01*
X107441904Y-65337142D01*
X107394285Y-65384761D01*
X107299047Y-65432380D01*
X107013333Y-65432380D01*
X106918095Y-65384761D01*
X106870476Y-65337142D01*
X127508095Y-64432380D02*
X127508095Y-65241904D01*
X127555714Y-65337142D01*
X127603333Y-65384761D01*
X127698571Y-65432380D01*
X127889047Y-65432380D01*
X127984285Y-65384761D01*
X128031904Y-65337142D01*
X128079523Y-65241904D01*
X128079523Y-64432380D01*
X128984285Y-64765714D02*
X128984285Y-65432380D01*
X128746190Y-64384761D02*
X128508095Y-65099047D01*
X129127142Y-65099047D01*
X88138095Y-93642380D02*
X88138095Y-94451904D01*
X88185714Y-94547142D01*
X88233333Y-94594761D01*
X88328571Y-94642380D01*
X88519047Y-94642380D01*
X88614285Y-94594761D01*
X88661904Y-94547142D01*
X88709523Y-94451904D01*
X88709523Y-93642380D01*
X89661904Y-93642380D02*
X89185714Y-93642380D01*
X89138095Y-94118571D01*
X89185714Y-94070952D01*
X89280952Y-94023333D01*
X89519047Y-94023333D01*
X89614285Y-94070952D01*
X89661904Y-94118571D01*
X89709523Y-94213809D01*
X89709523Y-94451904D01*
X89661904Y-94547142D01*
X89614285Y-94594761D01*
X89519047Y-94642380D01*
X89280952Y-94642380D01*
X89185714Y-94594761D01*
X89138095Y-94547142D01*
X105918095Y-98722380D02*
X105918095Y-99531904D01*
X105965714Y-99627142D01*
X106013333Y-99674761D01*
X106108571Y-99722380D01*
X106299047Y-99722380D01*
X106394285Y-99674761D01*
X106441904Y-99627142D01*
X106489523Y-99531904D01*
X106489523Y-98722380D01*
X107394285Y-98722380D02*
X107203809Y-98722380D01*
X107108571Y-98770000D01*
X107060952Y-98817619D01*
X106965714Y-98960476D01*
X106918095Y-99150952D01*
X106918095Y-99531904D01*
X106965714Y-99627142D01*
X107013333Y-99674761D01*
X107108571Y-99722380D01*
X107299047Y-99722380D01*
X107394285Y-99674761D01*
X107441904Y-99627142D01*
X107489523Y-99531904D01*
X107489523Y-99293809D01*
X107441904Y-99198571D01*
X107394285Y-99150952D01*
X107299047Y-99103333D01*
X107108571Y-99103333D01*
X107013333Y-99150952D01*
X106965714Y-99198571D01*
X106918095Y-99293809D01*
X127508095Y-98722380D02*
X127508095Y-99531904D01*
X127555714Y-99627142D01*
X127603333Y-99674761D01*
X127698571Y-99722380D01*
X127889047Y-99722380D01*
X127984285Y-99674761D01*
X128031904Y-99627142D01*
X128079523Y-99531904D01*
X128079523Y-98722380D01*
X128460476Y-98722380D02*
X129127142Y-98722380D01*
X128698571Y-99722380D01*
X88138095Y-117772380D02*
X88138095Y-118581904D01*
X88185714Y-118677142D01*
X88233333Y-118724761D01*
X88328571Y-118772380D01*
X88519047Y-118772380D01*
X88614285Y-118724761D01*
X88661904Y-118677142D01*
X88709523Y-118581904D01*
X88709523Y-117772380D01*
X89328571Y-118200952D02*
X89233333Y-118153333D01*
X89185714Y-118105714D01*
X89138095Y-118010476D01*
X89138095Y-117962857D01*
X89185714Y-117867619D01*
X89233333Y-117820000D01*
X89328571Y-117772380D01*
X89519047Y-117772380D01*
X89614285Y-117820000D01*
X89661904Y-117867619D01*
X89709523Y-117962857D01*
X89709523Y-118010476D01*
X89661904Y-118105714D01*
X89614285Y-118153333D01*
X89519047Y-118200952D01*
X89328571Y-118200952D01*
X89233333Y-118248571D01*
X89185714Y-118296190D01*
X89138095Y-118391428D01*
X89138095Y-118581904D01*
X89185714Y-118677142D01*
X89233333Y-118724761D01*
X89328571Y-118772380D01*
X89519047Y-118772380D01*
X89614285Y-118724761D01*
X89661904Y-118677142D01*
X89709523Y-118581904D01*
X89709523Y-118391428D01*
X89661904Y-118296190D01*
X89614285Y-118248571D01*
X89519047Y-118200952D01*
X72052380Y-152368095D02*
X72861904Y-152368095D01*
X72957142Y-152320476D01*
X73004761Y-152272857D01*
X73052380Y-152177619D01*
X73052380Y-151987142D01*
X73004761Y-151891904D01*
X72957142Y-151844285D01*
X72861904Y-151796666D01*
X72052380Y-151796666D01*
X73052380Y-150796666D02*
X73052380Y-151368095D01*
X73052380Y-151082380D02*
X72052380Y-151082380D01*
X72195238Y-151177619D01*
X72290476Y-151272857D01*
X72338095Y-151368095D01*
X72052380Y-150177619D02*
X72052380Y-150082380D01*
X72100000Y-149987142D01*
X72147619Y-149939523D01*
X72242857Y-149891904D01*
X72433333Y-149844285D01*
X72671428Y-149844285D01*
X72861904Y-149891904D01*
X72957142Y-149939523D01*
X73004761Y-149987142D01*
X73052380Y-150082380D01*
X73052380Y-150177619D01*
X73004761Y-150272857D01*
X72957142Y-150320476D01*
X72861904Y-150368095D01*
X72671428Y-150415714D01*
X72433333Y-150415714D01*
X72242857Y-150368095D01*
X72147619Y-150320476D01*
X72100000Y-150272857D01*
X72052380Y-150177619D01*
X63313333Y-120027142D02*
X63265714Y-120074761D01*
X63122857Y-120122380D01*
X63027619Y-120122380D01*
X62884761Y-120074761D01*
X62789523Y-119979523D01*
X62741904Y-119884285D01*
X62694285Y-119693809D01*
X62694285Y-119550952D01*
X62741904Y-119360476D01*
X62789523Y-119265238D01*
X62884761Y-119170000D01*
X63027619Y-119122380D01*
X63122857Y-119122380D01*
X63265714Y-119170000D01*
X63313333Y-119217619D01*
X64265714Y-120122380D02*
X63694285Y-120122380D01*
X63980000Y-120122380D02*
X63980000Y-119122380D01*
X63884761Y-119265238D01*
X63789523Y-119360476D01*
X63694285Y-119408095D01*
X79823333Y-120027142D02*
X79775714Y-120074761D01*
X79632857Y-120122380D01*
X79537619Y-120122380D01*
X79394761Y-120074761D01*
X79299523Y-119979523D01*
X79251904Y-119884285D01*
X79204285Y-119693809D01*
X79204285Y-119550952D01*
X79251904Y-119360476D01*
X79299523Y-119265238D01*
X79394761Y-119170000D01*
X79537619Y-119122380D01*
X79632857Y-119122380D01*
X79775714Y-119170000D01*
X79823333Y-119217619D01*
X80204285Y-119217619D02*
X80251904Y-119170000D01*
X80347142Y-119122380D01*
X80585238Y-119122380D01*
X80680476Y-119170000D01*
X80728095Y-119217619D01*
X80775714Y-119312857D01*
X80775714Y-119408095D01*
X80728095Y-119550952D01*
X80156666Y-120122380D01*
X80775714Y-120122380D01*
X97452380Y-141303333D02*
X98166666Y-141303333D01*
X98309523Y-141350952D01*
X98404761Y-141446190D01*
X98452380Y-141589047D01*
X98452380Y-141684285D01*
X97547619Y-140874761D02*
X97500000Y-140827142D01*
X97452380Y-140731904D01*
X97452380Y-140493809D01*
X97500000Y-140398571D01*
X97547619Y-140350952D01*
X97642857Y-140303333D01*
X97738095Y-140303333D01*
X97880952Y-140350952D01*
X98452380Y-140922380D01*
X98452380Y-140303333D01*
X65873333Y-138232380D02*
X65540000Y-137756190D01*
X65301904Y-138232380D02*
X65301904Y-137232380D01*
X65682857Y-137232380D01*
X65778095Y-137280000D01*
X65825714Y-137327619D01*
X65873333Y-137422857D01*
X65873333Y-137565714D01*
X65825714Y-137660952D01*
X65778095Y-137708571D01*
X65682857Y-137756190D01*
X65301904Y-137756190D01*
X66825714Y-138232380D02*
X66254285Y-138232380D01*
X66540000Y-138232380D02*
X66540000Y-137232380D01*
X66444761Y-137375238D01*
X66349523Y-137470476D01*
X66254285Y-137518095D01*
X46926666Y-136504761D02*
X47069523Y-136552380D01*
X47307619Y-136552380D01*
X47402857Y-136504761D01*
X47450476Y-136457142D01*
X47498095Y-136361904D01*
X47498095Y-136266666D01*
X47450476Y-136171428D01*
X47402857Y-136123809D01*
X47307619Y-136076190D01*
X47117142Y-136028571D01*
X47021904Y-135980952D01*
X46974285Y-135933333D01*
X46926666Y-135838095D01*
X46926666Y-135742857D01*
X46974285Y-135647619D01*
X47021904Y-135600000D01*
X47117142Y-135552380D01*
X47355238Y-135552380D01*
X47498095Y-135600000D01*
X47831428Y-135552380D02*
X48069523Y-136552380D01*
X48260000Y-135838095D01*
X48450476Y-136552380D01*
X48688571Y-135552380D01*
X49498095Y-135885714D02*
X49498095Y-136552380D01*
X49260000Y-135504761D02*
X49021904Y-136219047D01*
X49640952Y-136219047D01*
X71273809Y-119046190D02*
X71273809Y-119522380D01*
X70940476Y-118522380D02*
X71273809Y-119046190D01*
X71607142Y-118522380D01*
X72464285Y-119522380D02*
X71892857Y-119522380D01*
X72178571Y-119522380D02*
X72178571Y-118522380D01*
X72083333Y-118665238D01*
X71988095Y-118760476D01*
X71892857Y-118808095D01*
X44116666Y-64432380D02*
X44116666Y-65146666D01*
X44069047Y-65289523D01*
X43973809Y-65384761D01*
X43830952Y-65432380D01*
X43735714Y-65432380D01*
X44497619Y-64432380D02*
X45116666Y-64432380D01*
X44783333Y-64813333D01*
X44926190Y-64813333D01*
X45021428Y-64860952D01*
X45069047Y-64908571D01*
X45116666Y-65003809D01*
X45116666Y-65241904D01*
X45069047Y-65337142D01*
X45021428Y-65384761D01*
X44926190Y-65432380D01*
X44640476Y-65432380D01*
X44545238Y-65384761D01*
X44497619Y-65337142D01*
X50466666Y-64432380D02*
X50466666Y-65146666D01*
X50419047Y-65289523D01*
X50323809Y-65384761D01*
X50180952Y-65432380D01*
X50085714Y-65432380D01*
X51371428Y-64765714D02*
X51371428Y-65432380D01*
X51133333Y-64384761D02*
X50895238Y-65099047D01*
X51514285Y-65099047D01*
X44116666Y-110152380D02*
X44116666Y-110866666D01*
X44069047Y-111009523D01*
X43973809Y-111104761D01*
X43830952Y-111152380D01*
X43735714Y-111152380D01*
X45021428Y-110152380D02*
X44830952Y-110152380D01*
X44735714Y-110200000D01*
X44688095Y-110247619D01*
X44592857Y-110390476D01*
X44545238Y-110580952D01*
X44545238Y-110961904D01*
X44592857Y-111057142D01*
X44640476Y-111104761D01*
X44735714Y-111152380D01*
X44926190Y-111152380D01*
X45021428Y-111104761D01*
X45069047Y-111057142D01*
X45116666Y-110961904D01*
X45116666Y-110723809D01*
X45069047Y-110628571D01*
X45021428Y-110580952D01*
X44926190Y-110533333D01*
X44735714Y-110533333D01*
X44640476Y-110580952D01*
X44592857Y-110628571D01*
X44545238Y-110723809D01*
X56816666Y-88562380D02*
X56816666Y-89276666D01*
X56769047Y-89419523D01*
X56673809Y-89514761D01*
X56530952Y-89562380D01*
X56435714Y-89562380D01*
X57197619Y-88562380D02*
X57864285Y-88562380D01*
X57435714Y-89562380D01*
X56816666Y-64432380D02*
X56816666Y-65146666D01*
X56769047Y-65289523D01*
X56673809Y-65384761D01*
X56530952Y-65432380D01*
X56435714Y-65432380D01*
X57435714Y-64860952D02*
X57340476Y-64813333D01*
X57292857Y-64765714D01*
X57245238Y-64670476D01*
X57245238Y-64622857D01*
X57292857Y-64527619D01*
X57340476Y-64480000D01*
X57435714Y-64432380D01*
X57626190Y-64432380D01*
X57721428Y-64480000D01*
X57769047Y-64527619D01*
X57816666Y-64622857D01*
X57816666Y-64670476D01*
X57769047Y-64765714D01*
X57721428Y-64813333D01*
X57626190Y-64860952D01*
X57435714Y-64860952D01*
X57340476Y-64908571D01*
X57292857Y-64956190D01*
X57245238Y-65051428D01*
X57245238Y-65241904D01*
X57292857Y-65337142D01*
X57340476Y-65384761D01*
X57435714Y-65432380D01*
X57626190Y-65432380D01*
X57721428Y-65384761D01*
X57769047Y-65337142D01*
X57816666Y-65241904D01*
X57816666Y-65051428D01*
X57769047Y-64956190D01*
X57721428Y-64908571D01*
X57626190Y-64860952D01*
X44116666Y-97032380D02*
X44116666Y-97746666D01*
X44069047Y-97889523D01*
X43973809Y-97984761D01*
X43830952Y-98032380D01*
X43735714Y-98032380D01*
X44640476Y-98032380D02*
X44830952Y-98032380D01*
X44926190Y-97984761D01*
X44973809Y-97937142D01*
X45069047Y-97794285D01*
X45116666Y-97603809D01*
X45116666Y-97222857D01*
X45069047Y-97127619D01*
X45021428Y-97080000D01*
X44926190Y-97032380D01*
X44735714Y-97032380D01*
X44640476Y-97080000D01*
X44592857Y-97127619D01*
X44545238Y-97222857D01*
X44545238Y-97460952D01*
X44592857Y-97556190D01*
X44640476Y-97603809D01*
X44735714Y-97651428D01*
X44926190Y-97651428D01*
X45021428Y-97603809D01*
X45069047Y-97556190D01*
X45116666Y-97460952D01*
X52601904Y-161322380D02*
X52601904Y-160322380D01*
X52840000Y-160322380D01*
X52982857Y-160370000D01*
X53078095Y-160465238D01*
X53125714Y-160560476D01*
X53173333Y-160750952D01*
X53173333Y-160893809D01*
X53125714Y-161084285D01*
X53078095Y-161179523D01*
X52982857Y-161274761D01*
X52840000Y-161322380D01*
X52601904Y-161322380D01*
X54125714Y-161322380D02*
X53554285Y-161322380D01*
X53840000Y-161322380D02*
X53840000Y-160322380D01*
X53744761Y-160465238D01*
X53649523Y-160560476D01*
X53554285Y-160608095D01*
X51260476Y-110152380D02*
X51260476Y-110866666D01*
X51212857Y-111009523D01*
X51117619Y-111104761D01*
X50974761Y-111152380D01*
X50879523Y-111152380D01*
X52260476Y-111152380D02*
X51689047Y-111152380D01*
X51974761Y-111152380D02*
X51974761Y-110152380D01*
X51879523Y-110295238D01*
X51784285Y-110390476D01*
X51689047Y-110438095D01*
X52879523Y-110152380D02*
X52974761Y-110152380D01*
X53070000Y-110200000D01*
X53117619Y-110247619D01*
X53165238Y-110342857D01*
X53212857Y-110533333D01*
X53212857Y-110771428D01*
X53165238Y-110961904D01*
X53117619Y-111057142D01*
X53070000Y-111104761D01*
X52974761Y-111152380D01*
X52879523Y-111152380D01*
X52784285Y-111104761D01*
X52736666Y-111057142D01*
X52689047Y-110961904D01*
X52641428Y-110771428D01*
X52641428Y-110533333D01*
X52689047Y-110342857D01*
X52736666Y-110247619D01*
X52784285Y-110200000D01*
X52879523Y-110152380D01*
X59492380Y-163996666D02*
X59016190Y-164330000D01*
X59492380Y-164568095D02*
X58492380Y-164568095D01*
X58492380Y-164187142D01*
X58540000Y-164091904D01*
X58587619Y-164044285D01*
X58682857Y-163996666D01*
X58825714Y-163996666D01*
X58920952Y-164044285D01*
X58968571Y-164091904D01*
X59016190Y-164187142D01*
X59016190Y-164568095D01*
X58587619Y-163615714D02*
X58540000Y-163568095D01*
X58492380Y-163472857D01*
X58492380Y-163234761D01*
X58540000Y-163139523D01*
X58587619Y-163091904D01*
X58682857Y-163044285D01*
X58778095Y-163044285D01*
X58920952Y-163091904D01*
X59492380Y-163663333D01*
X59492380Y-163044285D01*
X46926666Y-151737961D02*
X47069523Y-151785580D01*
X47307619Y-151785580D01*
X47402857Y-151737961D01*
X47450476Y-151690342D01*
X47498095Y-151595104D01*
X47498095Y-151499866D01*
X47450476Y-151404628D01*
X47402857Y-151357009D01*
X47307619Y-151309390D01*
X47117142Y-151261771D01*
X47021904Y-151214152D01*
X46974285Y-151166533D01*
X46926666Y-151071295D01*
X46926666Y-150976057D01*
X46974285Y-150880819D01*
X47021904Y-150833200D01*
X47117142Y-150785580D01*
X47355238Y-150785580D01*
X47498095Y-150833200D01*
X47831428Y-150785580D02*
X48069523Y-151785580D01*
X48260000Y-151071295D01*
X48450476Y-151785580D01*
X48688571Y-150785580D01*
X49545714Y-150785580D02*
X49069523Y-150785580D01*
X49021904Y-151261771D01*
X49069523Y-151214152D01*
X49164761Y-151166533D01*
X49402857Y-151166533D01*
X49498095Y-151214152D01*
X49545714Y-151261771D01*
X49593333Y-151357009D01*
X49593333Y-151595104D01*
X49545714Y-151690342D01*
X49498095Y-151737961D01*
X49402857Y-151785580D01*
X49164761Y-151785580D01*
X49069523Y-151737961D01*
X49021904Y-151690342D01*
X65853333Y-145197142D02*
X65805714Y-145244761D01*
X65662857Y-145292380D01*
X65567619Y-145292380D01*
X65424761Y-145244761D01*
X65329523Y-145149523D01*
X65281904Y-145054285D01*
X65234285Y-144863809D01*
X65234285Y-144720952D01*
X65281904Y-144530476D01*
X65329523Y-144435238D01*
X65424761Y-144340000D01*
X65567619Y-144292380D01*
X65662857Y-144292380D01*
X65805714Y-144340000D01*
X65853333Y-144387619D01*
X66186666Y-144292380D02*
X66805714Y-144292380D01*
X66472380Y-144673333D01*
X66615238Y-144673333D01*
X66710476Y-144720952D01*
X66758095Y-144768571D01*
X66805714Y-144863809D01*
X66805714Y-145101904D01*
X66758095Y-145197142D01*
X66710476Y-145244761D01*
X66615238Y-145292380D01*
X66329523Y-145292380D01*
X66234285Y-145244761D01*
X66186666Y-145197142D01*
M02*
