G04 #@! TF.GenerationSoftware,KiCad,Pcbnew,(5.1.5)-3*
G04 #@! TF.CreationDate,2020-05-29T16:11:53-04:00*
G04 #@! TF.ProjectId,8031-sys06,38303331-2d73-4797-9330-362e6b696361,rev?*
G04 #@! TF.SameCoordinates,Original*
G04 #@! TF.FileFunction,Copper,L2,Bot*
G04 #@! TF.FilePolarity,Positive*
%FSLAX46Y46*%
G04 Gerber Fmt 4.6, Leading zero omitted, Abs format (unit mm)*
G04 Created by KiCad (PCBNEW (5.1.5)-3) date 2020-05-29 16:11:53*
%MOMM*%
%LPD*%
G04 APERTURE LIST*
%ADD10R,1.600000X1.600000*%
%ADD11C,1.600000*%
%ADD12R,2.400000X1.600000*%
%ADD13O,2.400000X1.600000*%
%ADD14R,1.600000X2.400000*%
%ADD15O,1.600000X2.400000*%
%ADD16R,1.700000X1.700000*%
%ADD17O,1.700000X1.700000*%
%ADD18C,1.400000*%
%ADD19O,1.400000X1.400000*%
%ADD20C,1.500000*%
%ADD21R,1.800000X1.800000*%
%ADD22C,1.800000*%
%ADD23R,2.200000X2.200000*%
%ADD24C,2.200000*%
%ADD25C,0.800000*%
%ADD26C,0.250000*%
G04 APERTURE END LIST*
D10*
X115570000Y-158750000D03*
D11*
X118340000Y-158750000D03*
X121110000Y-158750000D03*
X123880000Y-158750000D03*
X126650000Y-158750000D03*
X116955000Y-161290000D03*
X119725000Y-161290000D03*
X122495000Y-161290000D03*
X125265000Y-161290000D03*
D12*
X63500000Y-67310000D03*
D13*
X78740000Y-115570000D03*
X63500000Y-69850000D03*
X78740000Y-113030000D03*
X63500000Y-72390000D03*
X78740000Y-110490000D03*
X63500000Y-74930000D03*
X78740000Y-107950000D03*
X63500000Y-77470000D03*
X78740000Y-105410000D03*
X63500000Y-80010000D03*
X78740000Y-102870000D03*
X63500000Y-82550000D03*
X78740000Y-100330000D03*
X63500000Y-85090000D03*
X78740000Y-97790000D03*
X63500000Y-87630000D03*
X78740000Y-95250000D03*
X63500000Y-90170000D03*
X78740000Y-92710000D03*
X63500000Y-92710000D03*
X78740000Y-90170000D03*
X63500000Y-95250000D03*
X78740000Y-87630000D03*
X63500000Y-97790000D03*
X78740000Y-85090000D03*
X63500000Y-100330000D03*
X78740000Y-82550000D03*
X63500000Y-102870000D03*
X78740000Y-80010000D03*
X63500000Y-105410000D03*
X78740000Y-77470000D03*
X63500000Y-107950000D03*
X78740000Y-74930000D03*
X63500000Y-110490000D03*
X78740000Y-72390000D03*
X63500000Y-113030000D03*
X78740000Y-69850000D03*
X63500000Y-115570000D03*
X78740000Y-67310000D03*
X92710000Y-67310000D03*
X85090000Y-90170000D03*
X92710000Y-69850000D03*
X85090000Y-87630000D03*
X92710000Y-72390000D03*
X85090000Y-85090000D03*
X92710000Y-74930000D03*
X85090000Y-82550000D03*
X92710000Y-77470000D03*
X85090000Y-80010000D03*
X92710000Y-80010000D03*
X85090000Y-77470000D03*
X92710000Y-82550000D03*
X85090000Y-74930000D03*
X92710000Y-85090000D03*
X85090000Y-72390000D03*
X92710000Y-87630000D03*
X85090000Y-69850000D03*
X92710000Y-90170000D03*
D12*
X85090000Y-67310000D03*
X99060000Y-67310000D03*
D13*
X114300000Y-95250000D03*
X99060000Y-69850000D03*
X114300000Y-92710000D03*
X99060000Y-72390000D03*
X114300000Y-90170000D03*
X99060000Y-74930000D03*
X114300000Y-87630000D03*
X99060000Y-77470000D03*
X114300000Y-85090000D03*
X99060000Y-80010000D03*
X114300000Y-82550000D03*
X99060000Y-82550000D03*
X114300000Y-80010000D03*
X99060000Y-85090000D03*
X114300000Y-77470000D03*
X99060000Y-87630000D03*
X114300000Y-74930000D03*
X99060000Y-90170000D03*
X114300000Y-72390000D03*
X99060000Y-92710000D03*
X114300000Y-69850000D03*
X99060000Y-95250000D03*
X114300000Y-67310000D03*
X135890000Y-67310000D03*
X120650000Y-95250000D03*
X135890000Y-69850000D03*
X120650000Y-92710000D03*
X135890000Y-72390000D03*
X120650000Y-90170000D03*
X135890000Y-74930000D03*
X120650000Y-87630000D03*
X135890000Y-77470000D03*
X120650000Y-85090000D03*
X135890000Y-80010000D03*
X120650000Y-82550000D03*
X135890000Y-82550000D03*
X120650000Y-80010000D03*
X135890000Y-85090000D03*
X120650000Y-77470000D03*
X135890000Y-87630000D03*
X120650000Y-74930000D03*
X135890000Y-90170000D03*
X120650000Y-72390000D03*
X135890000Y-92710000D03*
X120650000Y-69850000D03*
X135890000Y-95250000D03*
D12*
X120650000Y-67310000D03*
X85090000Y-96520000D03*
D13*
X92710000Y-114300000D03*
X85090000Y-99060000D03*
X92710000Y-111760000D03*
X85090000Y-101600000D03*
X92710000Y-109220000D03*
X85090000Y-104140000D03*
X92710000Y-106680000D03*
X85090000Y-106680000D03*
X92710000Y-104140000D03*
X85090000Y-109220000D03*
X92710000Y-101600000D03*
X85090000Y-111760000D03*
X92710000Y-99060000D03*
X85090000Y-114300000D03*
X92710000Y-96520000D03*
D12*
X99060000Y-101600000D03*
D13*
X114300000Y-134620000D03*
X99060000Y-104140000D03*
X114300000Y-132080000D03*
X99060000Y-106680000D03*
X114300000Y-129540000D03*
X99060000Y-109220000D03*
X114300000Y-127000000D03*
X99060000Y-111760000D03*
X114300000Y-124460000D03*
X99060000Y-114300000D03*
X114300000Y-121920000D03*
X99060000Y-116840000D03*
X114300000Y-119380000D03*
X99060000Y-119380000D03*
X114300000Y-116840000D03*
X99060000Y-121920000D03*
X114300000Y-114300000D03*
X99060000Y-124460000D03*
X114300000Y-111760000D03*
X99060000Y-127000000D03*
X114300000Y-109220000D03*
X99060000Y-129540000D03*
X114300000Y-106680000D03*
X99060000Y-132080000D03*
X114300000Y-104140000D03*
X99060000Y-134620000D03*
X114300000Y-101600000D03*
X135890000Y-101600000D03*
X120650000Y-134620000D03*
X135890000Y-104140000D03*
X120650000Y-132080000D03*
X135890000Y-106680000D03*
X120650000Y-129540000D03*
X135890000Y-109220000D03*
X120650000Y-127000000D03*
X135890000Y-111760000D03*
X120650000Y-124460000D03*
X135890000Y-114300000D03*
X120650000Y-121920000D03*
X135890000Y-116840000D03*
X120650000Y-119380000D03*
X135890000Y-119380000D03*
X120650000Y-116840000D03*
X135890000Y-121920000D03*
X120650000Y-114300000D03*
X135890000Y-124460000D03*
X120650000Y-111760000D03*
X135890000Y-127000000D03*
X120650000Y-109220000D03*
X135890000Y-129540000D03*
X120650000Y-106680000D03*
X135890000Y-132080000D03*
X120650000Y-104140000D03*
X135890000Y-134620000D03*
D12*
X120650000Y-101600000D03*
D13*
X92710000Y-120650000D03*
X85090000Y-138430000D03*
X92710000Y-123190000D03*
X85090000Y-135890000D03*
X92710000Y-125730000D03*
X85090000Y-133350000D03*
X92710000Y-128270000D03*
X85090000Y-130810000D03*
X92710000Y-130810000D03*
X85090000Y-128270000D03*
X92710000Y-133350000D03*
X85090000Y-125730000D03*
X92710000Y-135890000D03*
X85090000Y-123190000D03*
X92710000Y-138430000D03*
D12*
X85090000Y-120650000D03*
D14*
X74930000Y-154940000D03*
D15*
X97790000Y-147320000D03*
X77470000Y-154940000D03*
X95250000Y-147320000D03*
X80010000Y-154940000D03*
X92710000Y-147320000D03*
X82550000Y-154940000D03*
X90170000Y-147320000D03*
X85090000Y-154940000D03*
X87630000Y-147320000D03*
X87630000Y-154940000D03*
X85090000Y-147320000D03*
X90170000Y-154940000D03*
X82550000Y-147320000D03*
X92710000Y-154940000D03*
X80010000Y-147320000D03*
X95250000Y-154940000D03*
X77470000Y-147320000D03*
X97790000Y-154940000D03*
X74930000Y-147320000D03*
D11*
X62230000Y-121920000D03*
X64730000Y-121920000D03*
X81240000Y-121920000D03*
X78740000Y-121920000D03*
D16*
X100330000Y-140970000D03*
D17*
X102870000Y-140970000D03*
X105410000Y-140970000D03*
X107950000Y-140970000D03*
X110490000Y-140970000D03*
X113030000Y-140970000D03*
X115570000Y-140970000D03*
X118110000Y-140970000D03*
X120650000Y-140970000D03*
X123190000Y-140970000D03*
X125730000Y-140970000D03*
X128270000Y-140970000D03*
X130810000Y-140970000D03*
X133350000Y-140970000D03*
X135890000Y-140970000D03*
D18*
X62230000Y-139700000D03*
D19*
X69850000Y-139700000D03*
D12*
X44450000Y-138430000D03*
D13*
X52070000Y-146050000D03*
X44450000Y-140970000D03*
X52070000Y-143510000D03*
X44450000Y-143510000D03*
X52070000Y-140970000D03*
X44450000Y-146050000D03*
X52070000Y-138430000D03*
D20*
X69850000Y-121920000D03*
X73650000Y-121920000D03*
D17*
X44450000Y-85090000D03*
X44450000Y-82550000D03*
X44450000Y-80010000D03*
X44450000Y-77470000D03*
X44450000Y-74930000D03*
X44450000Y-72390000D03*
X44450000Y-69850000D03*
D16*
X44450000Y-67310000D03*
X50800000Y-67310000D03*
D17*
X50800000Y-69850000D03*
X50800000Y-72390000D03*
X50800000Y-74930000D03*
X50800000Y-77470000D03*
X50800000Y-80010000D03*
X50800000Y-82550000D03*
X50800000Y-85090000D03*
X50800000Y-87630000D03*
X50800000Y-90170000D03*
X50800000Y-92710000D03*
X50800000Y-95250000D03*
X50800000Y-97790000D03*
X50800000Y-100330000D03*
X50800000Y-102870000D03*
X50800000Y-105410000D03*
D16*
X44450000Y-113030000D03*
D17*
X44450000Y-115570000D03*
X44450000Y-118110000D03*
X44450000Y-120650000D03*
X44450000Y-123190000D03*
X44450000Y-125730000D03*
X44450000Y-128270000D03*
X44450000Y-130810000D03*
D16*
X57150000Y-91440000D03*
D17*
X57150000Y-93980000D03*
X57150000Y-96520000D03*
X57150000Y-99060000D03*
X57150000Y-101600000D03*
X57150000Y-104140000D03*
X57150000Y-106680000D03*
X57150000Y-109220000D03*
X57150000Y-85090000D03*
X57150000Y-82550000D03*
X57150000Y-80010000D03*
X57150000Y-77470000D03*
X57150000Y-74930000D03*
X57150000Y-72390000D03*
X57150000Y-69850000D03*
D16*
X57150000Y-67310000D03*
X44450000Y-95250000D03*
D17*
X44450000Y-92710000D03*
D21*
X52070000Y-163830000D03*
D22*
X54610000Y-163830000D03*
D16*
X52070000Y-113030000D03*
D17*
X52070000Y-115570000D03*
X52070000Y-118110000D03*
X52070000Y-120650000D03*
X52070000Y-123190000D03*
X52070000Y-125730000D03*
X52070000Y-128270000D03*
X52070000Y-130810000D03*
D18*
X60960000Y-167640000D03*
D19*
X60960000Y-160020000D03*
D23*
X44450000Y-153670000D03*
D24*
X50950000Y-153670000D03*
X50950000Y-158170000D03*
X44450000Y-158170000D03*
D10*
X64770000Y-148590000D03*
D11*
X67270000Y-148590000D03*
D25*
X70616000Y-84866400D03*
X100216700Y-88867300D03*
X100323700Y-91566000D03*
X95614900Y-93911100D03*
X74240200Y-76748200D03*
X80495300Y-118082000D03*
X97336600Y-105410000D03*
X125009500Y-109380900D03*
X96727000Y-77462500D03*
X95101000Y-74978500D03*
D26*
X82550000Y-156465300D02*
X83450700Y-157366000D01*
X83450700Y-157366000D02*
X116956000Y-157366000D01*
X116956000Y-157366000D02*
X118340000Y-158750000D01*
X82550000Y-154940000D02*
X82550000Y-156465300D01*
X85090000Y-154940000D02*
X85090000Y-156465300D01*
X85090000Y-156465300D02*
X118825300Y-156465300D01*
X118825300Y-156465300D02*
X121110000Y-158750000D01*
X135890000Y-121920000D02*
X134364700Y-121920000D01*
X85090000Y-125730000D02*
X86615300Y-125730000D01*
X86615300Y-125730000D02*
X87772800Y-126887500D01*
X87772800Y-126887500D02*
X95135700Y-126887500D01*
X95135700Y-126887500D02*
X96381600Y-125641600D01*
X96381600Y-125641600D02*
X115773600Y-125641600D01*
X115773600Y-125641600D02*
X116955200Y-124460000D01*
X116955200Y-124460000D02*
X118217100Y-124460000D01*
X118217100Y-124460000D02*
X119599500Y-123077600D01*
X119599500Y-123077600D02*
X133207100Y-123077600D01*
X133207100Y-123077600D02*
X134364700Y-121920000D01*
X87630000Y-147320000D02*
X87630000Y-148845300D01*
X97790000Y-147320000D02*
X97790000Y-148845300D01*
X87630000Y-148845300D02*
X97790000Y-148845300D01*
X95250000Y-147320000D02*
X95250000Y-145794700D01*
X82550000Y-147320000D02*
X82550000Y-145794700D01*
X82550000Y-145794700D02*
X95250000Y-145794700D01*
X85090000Y-147320000D02*
X85090000Y-148845300D01*
X97790000Y-154940000D02*
X97790000Y-153414700D01*
X97790000Y-153414700D02*
X91184700Y-153414700D01*
X91184700Y-153414700D02*
X86615300Y-148845300D01*
X86615300Y-148845300D02*
X85090000Y-148845300D01*
X77214700Y-87630000D02*
X76730200Y-87145500D01*
X76730200Y-87145500D02*
X76730200Y-82561200D01*
X76730200Y-82561200D02*
X78011400Y-81280000D01*
X78011400Y-81280000D02*
X79501700Y-81280000D01*
X79501700Y-81280000D02*
X83279200Y-77502500D01*
X83279200Y-77502500D02*
X83279200Y-77258200D01*
X83279200Y-77258200D02*
X84337400Y-76200000D01*
X84337400Y-76200000D02*
X86615400Y-76200000D01*
X86615400Y-76200000D02*
X90425400Y-72390000D01*
X90425400Y-72390000D02*
X92710000Y-72390000D01*
X78740000Y-87630000D02*
X77214700Y-87630000D01*
X135890000Y-85090000D02*
X134364700Y-85090000D01*
X114300000Y-85090000D02*
X115825300Y-85090000D01*
X115825300Y-85090000D02*
X116998800Y-83916500D01*
X116998800Y-83916500D02*
X133191200Y-83916500D01*
X133191200Y-83916500D02*
X134364700Y-85090000D01*
X92710000Y-74930000D02*
X91184700Y-74930000D01*
X78740000Y-85090000D02*
X80265300Y-85090000D01*
X80265300Y-85090000D02*
X80265300Y-82828200D01*
X80265300Y-82828200D02*
X84208900Y-78884600D01*
X84208900Y-78884600D02*
X87230100Y-78884600D01*
X87230100Y-78884600D02*
X91184700Y-74930000D01*
X44450000Y-82550000D02*
X45625300Y-82550000D01*
X45625300Y-82550000D02*
X49341900Y-86266600D01*
X49341900Y-86266600D02*
X69215800Y-86266600D01*
X69215800Y-86266600D02*
X70616000Y-84866400D01*
X114300000Y-127000000D02*
X115825300Y-127000000D01*
X135890000Y-127000000D02*
X134364700Y-127000000D01*
X134364700Y-127000000D02*
X133231400Y-125866700D01*
X133231400Y-125866700D02*
X116958600Y-125866700D01*
X116958600Y-125866700D02*
X115825300Y-127000000D01*
X114733500Y-87630000D02*
X114300000Y-87630000D01*
X114733500Y-87630000D02*
X115825300Y-87630000D01*
X135890000Y-87630000D02*
X134364700Y-87630000D01*
X134364700Y-87630000D02*
X133215400Y-86480700D01*
X133215400Y-86480700D02*
X116974600Y-86480700D01*
X116974600Y-86480700D02*
X115825300Y-87630000D01*
X92710000Y-82550000D02*
X91184700Y-82550000D01*
X78740000Y-82550000D02*
X77180600Y-84109400D01*
X77180600Y-84109400D02*
X77180600Y-85557300D01*
X77180600Y-85557300D02*
X77838700Y-86215400D01*
X77838700Y-86215400D02*
X87519300Y-86215400D01*
X87519300Y-86215400D02*
X91184700Y-82550000D01*
X112774700Y-90170000D02*
X101519400Y-90170000D01*
X101519400Y-90170000D02*
X100216700Y-88867300D01*
X114300000Y-90170000D02*
X112774700Y-90170000D01*
X135890000Y-90170000D02*
X134364700Y-90170000D01*
X114300000Y-90170000D02*
X115825300Y-90170000D01*
X115825300Y-90170000D02*
X116998800Y-88996500D01*
X116998800Y-88996500D02*
X133191200Y-88996500D01*
X133191200Y-88996500D02*
X134364700Y-90170000D01*
X114300000Y-129540000D02*
X115825300Y-129540000D01*
X135890000Y-129540000D02*
X134364700Y-129540000D01*
X134364700Y-129540000D02*
X133215400Y-128390700D01*
X133215400Y-128390700D02*
X116974600Y-128390700D01*
X116974600Y-128390700D02*
X115825300Y-129540000D01*
X92710000Y-85090000D02*
X91184700Y-85090000D01*
X78740000Y-80010000D02*
X78644500Y-80010000D01*
X78644500Y-80010000D02*
X76277600Y-82376900D01*
X76277600Y-82376900D02*
X76277600Y-87332700D01*
X76277600Y-87332700D02*
X77705300Y-88760400D01*
X77705300Y-88760400D02*
X87514300Y-88760400D01*
X87514300Y-88760400D02*
X91184700Y-85090000D01*
X112774700Y-92710000D02*
X101467700Y-92710000D01*
X101467700Y-92710000D02*
X100323700Y-91566000D01*
X114300000Y-92710000D02*
X112774700Y-92710000D01*
X114300000Y-92710000D02*
X115825300Y-92710000D01*
X135890000Y-92710000D02*
X134364700Y-92710000D01*
X134364700Y-92710000D02*
X133215400Y-91560700D01*
X133215400Y-91560700D02*
X116974600Y-91560700D01*
X116974600Y-91560700D02*
X115825300Y-92710000D01*
X114300000Y-132080000D02*
X115825300Y-132080000D01*
X135890000Y-132080000D02*
X134364700Y-132080000D01*
X134364700Y-132080000D02*
X133215400Y-130930700D01*
X133215400Y-130930700D02*
X116974600Y-130930700D01*
X116974600Y-130930700D02*
X115825300Y-132080000D01*
X45625300Y-74930000D02*
X46800600Y-76105300D01*
X46800600Y-76105300D02*
X73597300Y-76105300D01*
X73597300Y-76105300D02*
X74240200Y-76748200D01*
X114300000Y-95250000D02*
X102488400Y-95250000D01*
X102488400Y-95250000D02*
X101149500Y-93911100D01*
X101149500Y-93911100D02*
X95614900Y-93911100D01*
X134364700Y-95250000D02*
X133187200Y-94072500D01*
X133187200Y-94072500D02*
X119665300Y-94072500D01*
X119665300Y-94072500D02*
X118487800Y-95250000D01*
X118487800Y-95250000D02*
X114300000Y-95250000D01*
X44450000Y-74930000D02*
X45625300Y-74930000D01*
X135890000Y-95250000D02*
X134364700Y-95250000D01*
X114300000Y-134620000D02*
X115825300Y-134620000D01*
X135890000Y-134620000D02*
X134364700Y-134620000D01*
X134364700Y-134620000D02*
X133174200Y-133429500D01*
X133174200Y-133429500D02*
X117015800Y-133429500D01*
X117015800Y-133429500D02*
X115825300Y-134620000D01*
X99060000Y-132080000D02*
X100585300Y-132080000D01*
X120650000Y-132080000D02*
X117235300Y-132080000D01*
X117235300Y-132080000D02*
X116086000Y-133229300D01*
X116086000Y-133229300D02*
X101734600Y-133229300D01*
X101734600Y-133229300D02*
X100585300Y-132080000D01*
X119124700Y-92710000D02*
X117975400Y-93859300D01*
X117975400Y-93859300D02*
X101734600Y-93859300D01*
X101734600Y-93859300D02*
X100585300Y-92710000D01*
X78740000Y-74930000D02*
X77214700Y-74930000D01*
X44450000Y-72390000D02*
X45625300Y-72390000D01*
X45625300Y-72390000D02*
X46800600Y-73565300D01*
X46800600Y-73565300D02*
X75850000Y-73565300D01*
X75850000Y-73565300D02*
X77214700Y-74930000D01*
X120650000Y-92710000D02*
X119124700Y-92710000D01*
X99060000Y-92710000D02*
X100585300Y-92710000D01*
X78740000Y-72390000D02*
X77214700Y-72390000D01*
X44450000Y-69850000D02*
X45625300Y-69850000D01*
X45625300Y-69850000D02*
X46827200Y-71051900D01*
X46827200Y-71051900D02*
X75876600Y-71051900D01*
X75876600Y-71051900D02*
X77214700Y-72390000D01*
X99060000Y-90170000D02*
X100585300Y-90170000D01*
X100585300Y-90170000D02*
X101762700Y-91347400D01*
X101762700Y-91347400D02*
X115284800Y-91347400D01*
X115284800Y-91347400D02*
X116462200Y-90170000D01*
X116462200Y-90170000D02*
X120650000Y-90170000D01*
X99060000Y-129540000D02*
X100585300Y-129540000D01*
X120650000Y-129540000D02*
X117235300Y-129540000D01*
X117235300Y-129540000D02*
X116086000Y-130689300D01*
X116086000Y-130689300D02*
X101734600Y-130689300D01*
X101734600Y-130689300D02*
X100585300Y-129540000D01*
X99060000Y-127000000D02*
X100585300Y-127000000D01*
X100585300Y-127000000D02*
X101762700Y-128177400D01*
X101762700Y-128177400D02*
X115284800Y-128177400D01*
X115284800Y-128177400D02*
X116462200Y-127000000D01*
X116462200Y-127000000D02*
X120650000Y-127000000D01*
X120650000Y-87630000D02*
X117498900Y-87630000D01*
X117498900Y-87630000D02*
X116362900Y-88766000D01*
X116362900Y-88766000D02*
X101721300Y-88766000D01*
X101721300Y-88766000D02*
X100585300Y-87630000D01*
X99060000Y-87630000D02*
X100585300Y-87630000D01*
X85090000Y-67310000D02*
X83564700Y-67310000D01*
X78740000Y-90170000D02*
X77214700Y-90170000D01*
X77214700Y-90170000D02*
X75827200Y-88782500D01*
X75827200Y-88782500D02*
X75827200Y-80918700D01*
X75827200Y-80918700D02*
X78005900Y-78740000D01*
X78005900Y-78740000D02*
X79462400Y-78740000D01*
X79462400Y-78740000D02*
X83564700Y-74637700D01*
X83564700Y-74637700D02*
X83564700Y-67310000D01*
X83564700Y-90170000D02*
X78740000Y-90170000D01*
X64730000Y-121920000D02*
X65855300Y-120794700D01*
X65855300Y-120794700D02*
X80114700Y-120794700D01*
X80114700Y-120794700D02*
X81240000Y-121920000D01*
X85090000Y-135890000D02*
X86615300Y-135890000D01*
X86615300Y-135890000D02*
X87885300Y-134620000D01*
X87885300Y-134620000D02*
X99060000Y-134620000D01*
X70875300Y-139700000D02*
X74685300Y-135890000D01*
X74685300Y-135890000D02*
X85090000Y-135890000D01*
X69850000Y-139700000D02*
X70875300Y-139700000D01*
X84327400Y-90170000D02*
X85090000Y-90170000D01*
X120650000Y-95250000D02*
X119124700Y-95250000D01*
X99060000Y-95250000D02*
X100585300Y-95250000D01*
X100585300Y-95250000D02*
X101710600Y-96375300D01*
X101710600Y-96375300D02*
X117999400Y-96375300D01*
X117999400Y-96375300D02*
X119124700Y-95250000D01*
X120650000Y-134620000D02*
X119124700Y-134620000D01*
X99060000Y-134620000D02*
X100585300Y-134620000D01*
X100585300Y-134620000D02*
X101722200Y-135756900D01*
X101722200Y-135756900D02*
X117987800Y-135756900D01*
X117987800Y-135756900D02*
X119124700Y-134620000D01*
X63500000Y-115570000D02*
X61974700Y-115570000D01*
X44450000Y-115570000D02*
X45625300Y-115570000D01*
X45625300Y-115570000D02*
X46815800Y-114379500D01*
X46815800Y-114379500D02*
X60784200Y-114379500D01*
X60784200Y-114379500D02*
X61974700Y-115570000D01*
X84327400Y-90170000D02*
X83564700Y-90170000D01*
X78740000Y-121920000D02*
X77640300Y-123019700D01*
X77640300Y-123019700D02*
X70949700Y-123019700D01*
X70949700Y-123019700D02*
X69850000Y-121920000D01*
X61974700Y-87630000D02*
X60789400Y-88815300D01*
X60789400Y-88815300D02*
X45968300Y-88815300D01*
X45968300Y-88815300D02*
X42759600Y-92024000D01*
X42759600Y-92024000D02*
X42759600Y-125793400D01*
X42759600Y-125793400D02*
X43966200Y-127000000D01*
X43966200Y-127000000D02*
X44855600Y-127000000D01*
X44855600Y-127000000D02*
X52070000Y-134214400D01*
X52070000Y-134214400D02*
X52070000Y-138430000D01*
X63500000Y-87630000D02*
X61974700Y-87630000D01*
X91184700Y-67310000D02*
X89126400Y-65251700D01*
X89126400Y-65251700D02*
X82323600Y-65251700D01*
X82323600Y-65251700D02*
X80265300Y-67310000D01*
X112774700Y-101600000D02*
X111381800Y-100207100D01*
X111381800Y-100207100D02*
X97922400Y-100207100D01*
X97922400Y-100207100D02*
X94235300Y-96520000D01*
X114300000Y-101600000D02*
X112774700Y-101600000D01*
X92710000Y-96520000D02*
X94235300Y-96520000D01*
X78740000Y-67310000D02*
X80265300Y-67310000D01*
X92710000Y-67310000D02*
X91184700Y-67310000D01*
X135890000Y-101600000D02*
X134364700Y-101600000D01*
X67745000Y-150695000D02*
X87450300Y-150695000D01*
X87450300Y-150695000D02*
X90170000Y-153414700D01*
X67270000Y-148590000D02*
X67270000Y-150220000D01*
X67270000Y-150220000D02*
X67745000Y-150695000D01*
X67745000Y-150695000D02*
X54610000Y-163830000D01*
X90170000Y-154940000D02*
X90170000Y-153414700D01*
X114300000Y-101600000D02*
X115825300Y-101600000D01*
X115825300Y-101600000D02*
X116968100Y-100457200D01*
X116968100Y-100457200D02*
X133221900Y-100457200D01*
X133221900Y-100457200D02*
X134364700Y-101600000D01*
X114300000Y-67310000D02*
X115825300Y-67310000D01*
X135890000Y-67310000D02*
X134364700Y-67310000D01*
X134364700Y-67310000D02*
X133239400Y-66184700D01*
X133239400Y-66184700D02*
X116950600Y-66184700D01*
X116950600Y-66184700D02*
X115825300Y-67310000D01*
X54610000Y-163830000D02*
X54486700Y-163830000D01*
X54486700Y-163830000D02*
X45752000Y-155095300D01*
X45752000Y-155095300D02*
X44450000Y-155095300D01*
X44450000Y-153670000D02*
X44450000Y-155095300D01*
X100330000Y-140970000D02*
X101505300Y-140970000D01*
X113030000Y-140970000D02*
X111854700Y-140970000D01*
X111854700Y-140970000D02*
X111854700Y-140602700D01*
X111854700Y-140602700D02*
X111046700Y-139794700D01*
X111046700Y-139794700D02*
X102313200Y-139794700D01*
X102313200Y-139794700D02*
X101505300Y-140602600D01*
X101505300Y-140602600D02*
X101505300Y-140970000D01*
X107950000Y-140970000D02*
X105410000Y-140970000D01*
X135890000Y-69850000D02*
X137415300Y-69850000D01*
X135890000Y-109220000D02*
X137415300Y-109220000D01*
X137415300Y-109220000D02*
X137875900Y-108759400D01*
X137875900Y-108759400D02*
X137875900Y-70310600D01*
X137875900Y-70310600D02*
X137415300Y-69850000D01*
X135456500Y-109220000D02*
X135890000Y-109220000D01*
X115825300Y-109220000D02*
X116974600Y-108070700D01*
X116974600Y-108070700D02*
X133215400Y-108070700D01*
X133215400Y-108070700D02*
X134364700Y-109220000D01*
X114300000Y-109220000D02*
X112774700Y-109220000D01*
X78740000Y-115570000D02*
X77214700Y-115570000D01*
X77214700Y-115570000D02*
X77214700Y-112556300D01*
X77214700Y-112556300D02*
X78011000Y-111760000D01*
X78011000Y-111760000D02*
X79501800Y-111760000D01*
X79501800Y-111760000D02*
X83183000Y-108078800D01*
X83183000Y-108078800D02*
X101446700Y-108078800D01*
X101446700Y-108078800D02*
X102121600Y-108753700D01*
X102121600Y-108753700D02*
X112308400Y-108753700D01*
X112308400Y-108753700D02*
X112774700Y-109220000D01*
X135456500Y-109220000D02*
X134364700Y-109220000D01*
X114300000Y-109220000D02*
X115825300Y-109220000D01*
X114300000Y-72390000D02*
X115825300Y-72390000D01*
X80265300Y-113030000D02*
X82661100Y-110634200D01*
X82661100Y-110634200D02*
X103022100Y-110634200D01*
X103022100Y-110634200D02*
X104147900Y-111760000D01*
X104147900Y-111760000D02*
X114300000Y-111760000D01*
X78740000Y-113030000D02*
X80265300Y-113030000D01*
X135890000Y-72390000D02*
X134364700Y-72390000D01*
X134364700Y-72390000D02*
X133234200Y-71259500D01*
X133234200Y-71259500D02*
X116955800Y-71259500D01*
X116955800Y-71259500D02*
X115825300Y-72390000D01*
X115062700Y-111760000D02*
X114300000Y-111760000D01*
X115062700Y-111760000D02*
X115825300Y-111760000D01*
X115825300Y-111760000D02*
X117714700Y-111760000D01*
X117714700Y-111760000D02*
X118864000Y-110610700D01*
X118864000Y-110610700D02*
X133215400Y-110610700D01*
X133215400Y-110610700D02*
X134364700Y-111760000D01*
X135890000Y-111760000D02*
X134364700Y-111760000D01*
X135890000Y-80010000D02*
X134364700Y-80010000D01*
X114300000Y-80010000D02*
X115825300Y-80010000D01*
X115825300Y-80010000D02*
X116974600Y-81159300D01*
X116974600Y-81159300D02*
X133215400Y-81159300D01*
X133215400Y-81159300D02*
X134364700Y-80010000D01*
X114300000Y-119380000D02*
X101299000Y-119380000D01*
X101299000Y-119380000D02*
X100001000Y-118082000D01*
X100001000Y-118082000D02*
X80495300Y-118082000D01*
X115062700Y-119380000D02*
X115825300Y-119380000D01*
X114300000Y-119380000D02*
X114623300Y-119380000D01*
X115062700Y-119380000D02*
X114623300Y-119380000D01*
X135890000Y-119380000D02*
X134364700Y-119380000D01*
X115825300Y-119380000D02*
X116999700Y-118205600D01*
X116999700Y-118205600D02*
X133190300Y-118205600D01*
X133190300Y-118205600D02*
X134364700Y-119380000D01*
X85090000Y-96520000D02*
X83564700Y-96520000D01*
X50800000Y-95250000D02*
X59375000Y-95250000D01*
X59375000Y-95250000D02*
X60571100Y-94053900D01*
X60571100Y-94053900D02*
X81098600Y-94053900D01*
X81098600Y-94053900D02*
X83564700Y-96520000D01*
X114300000Y-114300000D02*
X112774700Y-114300000D01*
X78740000Y-107950000D02*
X77214700Y-107950000D01*
X77214700Y-107950000D02*
X76743500Y-108421200D01*
X76743500Y-108421200D02*
X76743500Y-115760600D01*
X76743500Y-115760600D02*
X77684800Y-116701900D01*
X77684800Y-116701900D02*
X86310000Y-116701900D01*
X86310000Y-116701900D02*
X89898500Y-113113400D01*
X89898500Y-113113400D02*
X100335100Y-113113400D01*
X100335100Y-113113400D02*
X101055400Y-113833700D01*
X101055400Y-113833700D02*
X112308400Y-113833700D01*
X112308400Y-113833700D02*
X112774700Y-114300000D01*
X115062700Y-114300000D02*
X114300000Y-114300000D01*
X115062700Y-114300000D02*
X115825300Y-114300000D01*
X115825300Y-114300000D02*
X117002800Y-113122500D01*
X117002800Y-113122500D02*
X133187200Y-113122500D01*
X133187200Y-113122500D02*
X134364700Y-114300000D01*
X135890000Y-114300000D02*
X134364700Y-114300000D01*
X120650000Y-104140000D02*
X119124700Y-104140000D01*
X99060000Y-104140000D02*
X100585300Y-104140000D01*
X100585300Y-104140000D02*
X101711100Y-105265800D01*
X101711100Y-105265800D02*
X115639900Y-105265800D01*
X115639900Y-105265800D02*
X116299400Y-104606300D01*
X116299400Y-104606300D02*
X118658400Y-104606300D01*
X118658400Y-104606300D02*
X119124700Y-104140000D01*
X98297400Y-104140000D02*
X99060000Y-104140000D01*
X98297400Y-104140000D02*
X97534700Y-104140000D01*
X97534700Y-104140000D02*
X96264700Y-105410000D01*
X96264700Y-105410000D02*
X78740000Y-105410000D01*
X50800000Y-97790000D02*
X51975300Y-97790000D01*
X51975300Y-97790000D02*
X54459000Y-100273700D01*
X54459000Y-100273700D02*
X60621000Y-100273700D01*
X60621000Y-100273700D02*
X61834700Y-99060000D01*
X61834700Y-99060000D02*
X85090000Y-99060000D01*
X50800000Y-100330000D02*
X50800000Y-101505300D01*
X50800000Y-101505300D02*
X50432700Y-101505300D01*
X50432700Y-101505300D02*
X49593600Y-102344400D01*
X49593600Y-102344400D02*
X49593600Y-103398400D01*
X49593600Y-103398400D02*
X50419400Y-104224200D01*
X50419400Y-104224200D02*
X53358800Y-104224200D01*
X53358800Y-104224200D02*
X54488300Y-105353700D01*
X54488300Y-105353700D02*
X60621000Y-105353700D01*
X60621000Y-105353700D02*
X61690100Y-104284600D01*
X61690100Y-104284600D02*
X64285800Y-104284600D01*
X64285800Y-104284600D02*
X65700400Y-102870000D01*
X65700400Y-102870000D02*
X78740000Y-102870000D01*
X114300000Y-106680000D02*
X112774700Y-106680000D01*
X97336600Y-105410000D02*
X100512100Y-105410000D01*
X100512100Y-105410000D02*
X101782100Y-106680000D01*
X101782100Y-106680000D02*
X112774700Y-106680000D01*
X114300000Y-106680000D02*
X115825300Y-106680000D01*
X85090000Y-101600000D02*
X81535300Y-101600000D01*
X81535300Y-101600000D02*
X80265300Y-102870000D01*
X135890000Y-106680000D02*
X134364700Y-106680000D01*
X115825300Y-106680000D02*
X116974600Y-105530700D01*
X116974600Y-105530700D02*
X133215400Y-105530700D01*
X133215400Y-105530700D02*
X134364700Y-106680000D01*
X78740000Y-102870000D02*
X80265300Y-102870000D01*
X78740000Y-100330000D02*
X77214700Y-100330000D01*
X50800000Y-102870000D02*
X60564700Y-102870000D01*
X60564700Y-102870000D02*
X61768800Y-101665900D01*
X61768800Y-101665900D02*
X75878800Y-101665900D01*
X75878800Y-101665900D02*
X77214700Y-100330000D01*
X99060000Y-101600000D02*
X100585300Y-101600000D01*
X100585300Y-101600000D02*
X101710700Y-102725400D01*
X101710700Y-102725400D02*
X115336800Y-102725400D01*
X115336800Y-102725400D02*
X116462200Y-101600000D01*
X116462200Y-101600000D02*
X120650000Y-101600000D01*
X98297400Y-101600000D02*
X99060000Y-101600000D01*
X98297400Y-101600000D02*
X97534700Y-101600000D01*
X97534700Y-101600000D02*
X96264700Y-100330000D01*
X96264700Y-100330000D02*
X80265300Y-100330000D01*
X78740000Y-100330000D02*
X80265300Y-100330000D01*
X85090000Y-120650000D02*
X83564700Y-120650000D01*
X50800000Y-105410000D02*
X51975300Y-105410000D01*
X51975300Y-105410000D02*
X51975300Y-105777300D01*
X51975300Y-105777300D02*
X57958000Y-111760000D01*
X57958000Y-111760000D02*
X65025300Y-111760000D01*
X65025300Y-111760000D02*
X72790000Y-119524700D01*
X72790000Y-119524700D02*
X82439400Y-119524700D01*
X82439400Y-119524700D02*
X83564700Y-120650000D01*
X114300000Y-121920000D02*
X112774700Y-121920000D01*
X85090000Y-123190000D02*
X86615300Y-123190000D01*
X86615300Y-123190000D02*
X87885300Y-121920000D01*
X87885300Y-121920000D02*
X95023200Y-121920000D01*
X95023200Y-121920000D02*
X96153400Y-120789800D01*
X96153400Y-120789800D02*
X100405500Y-120789800D01*
X100405500Y-120789800D02*
X101535700Y-121920000D01*
X101535700Y-121920000D02*
X112774700Y-121920000D01*
X57150000Y-91440000D02*
X58325300Y-91440000D01*
X58325300Y-91440000D02*
X59595300Y-90170000D01*
X59595300Y-90170000D02*
X63500000Y-90170000D01*
X63500000Y-92710000D02*
X61974700Y-92710000D01*
X57150000Y-93980000D02*
X58325300Y-93980000D01*
X58325300Y-93980000D02*
X59595300Y-92710000D01*
X59595300Y-92710000D02*
X61974700Y-92710000D01*
X65025300Y-105410000D02*
X66439900Y-103995400D01*
X66439900Y-103995400D02*
X81651400Y-103995400D01*
X81651400Y-103995400D02*
X82647000Y-102999800D01*
X82647000Y-102999800D02*
X100940400Y-102999800D01*
X100940400Y-102999800D02*
X102080600Y-104140000D01*
X102080600Y-104140000D02*
X114300000Y-104140000D01*
X63500000Y-105410000D02*
X61974700Y-105410000D01*
X57150000Y-106680000D02*
X58325300Y-106680000D01*
X58325300Y-106680000D02*
X60704700Y-106680000D01*
X60704700Y-106680000D02*
X61974700Y-105410000D01*
X63500000Y-105410000D02*
X65025300Y-105410000D01*
X134364700Y-104140000D02*
X133231500Y-103006800D01*
X133231500Y-103006800D02*
X119621000Y-103006800D01*
X119621000Y-103006800D02*
X118487800Y-104140000D01*
X118487800Y-104140000D02*
X114300000Y-104140000D01*
X135890000Y-104140000D02*
X134364700Y-104140000D01*
X114300000Y-116840000D02*
X107083200Y-116840000D01*
X107083200Y-116840000D02*
X105921700Y-115678500D01*
X105921700Y-115678500D02*
X94031700Y-115678500D01*
X94031700Y-115678500D02*
X92557900Y-117152300D01*
X92557900Y-117152300D02*
X74227600Y-117152300D01*
X74227600Y-117152300D02*
X65025300Y-107950000D01*
X63500000Y-107950000D02*
X65025300Y-107950000D01*
X115062700Y-116840000D02*
X114300000Y-116840000D01*
X63500000Y-107950000D02*
X61974700Y-107950000D01*
X57150000Y-109220000D02*
X60704700Y-109220000D01*
X60704700Y-109220000D02*
X61974700Y-107950000D01*
X115062700Y-116840000D02*
X115825300Y-116840000D01*
X134364700Y-116840000D02*
X133187200Y-115662500D01*
X133187200Y-115662500D02*
X119665300Y-115662500D01*
X119665300Y-115662500D02*
X118487800Y-116840000D01*
X118487800Y-116840000D02*
X115825300Y-116840000D01*
X135890000Y-116840000D02*
X134364700Y-116840000D01*
X92710000Y-69850000D02*
X91184700Y-69850000D01*
X50800000Y-85090000D02*
X50800000Y-83914700D01*
X50800000Y-83914700D02*
X50018600Y-83914700D01*
X50018600Y-83914700D02*
X44843900Y-78740000D01*
X44843900Y-78740000D02*
X43961100Y-78740000D01*
X43961100Y-78740000D02*
X43235000Y-78013900D01*
X43235000Y-78013900D02*
X43235000Y-69326700D01*
X43235000Y-69326700D02*
X43909300Y-68652400D01*
X43909300Y-68652400D02*
X79856500Y-68652400D01*
X79856500Y-68652400D02*
X82806800Y-65702100D01*
X82806800Y-65702100D02*
X87036800Y-65702100D01*
X87036800Y-65702100D02*
X91184700Y-69850000D01*
X120650000Y-67310000D02*
X131149800Y-67310000D01*
X131149800Y-67310000D02*
X134959800Y-71120000D01*
X134959800Y-71120000D02*
X136611500Y-71120000D01*
X136611500Y-71120000D02*
X137415300Y-71923800D01*
X137415300Y-71923800D02*
X137415300Y-107171300D01*
X137415300Y-107171300D02*
X136729200Y-107857400D01*
X136729200Y-107857400D02*
X134905200Y-107857400D01*
X134905200Y-107857400D02*
X133727800Y-106680000D01*
X133727800Y-106680000D02*
X120650000Y-106680000D01*
X120650000Y-106680000D02*
X117235300Y-106680000D01*
X117235300Y-106680000D02*
X116105500Y-107809800D01*
X116105500Y-107809800D02*
X101814600Y-107809800D01*
X101814600Y-107809800D02*
X100684800Y-106680000D01*
X100684800Y-106680000D02*
X100585300Y-106680000D01*
X99060000Y-106680000D02*
X100585300Y-106680000D01*
X85090000Y-87630000D02*
X87969800Y-87630000D01*
X87969800Y-87630000D02*
X91779800Y-83820000D01*
X91779800Y-83820000D02*
X93481300Y-83820000D01*
X93481300Y-83820000D02*
X94235300Y-83066000D01*
X94235300Y-83066000D02*
X94235300Y-82167000D01*
X94235300Y-82167000D02*
X98932300Y-77470000D01*
X98932300Y-77470000D02*
X99060000Y-77470000D01*
X99060000Y-116840000D02*
X103413900Y-116840000D01*
X103413900Y-116840000D02*
X104554400Y-117980500D01*
X104554400Y-117980500D02*
X115600100Y-117980500D01*
X115600100Y-117980500D02*
X116274300Y-117306300D01*
X116274300Y-117306300D02*
X118658400Y-117306300D01*
X118658400Y-117306300D02*
X119124700Y-116840000D01*
X120650000Y-116840000D02*
X119124700Y-116840000D01*
X120650000Y-69850000D02*
X119124700Y-69850000D01*
X99060000Y-69850000D02*
X100585300Y-69850000D01*
X100585300Y-69850000D02*
X101734500Y-68700800D01*
X101734500Y-68700800D02*
X117975500Y-68700800D01*
X117975500Y-68700800D02*
X119124700Y-69850000D01*
X120650000Y-109220000D02*
X122175300Y-109220000D01*
X122175300Y-109220000D02*
X122336200Y-109380900D01*
X122336200Y-109380900D02*
X125009500Y-109380900D01*
X120650000Y-109220000D02*
X118180000Y-109220000D01*
X118180000Y-109220000D02*
X117054300Y-110345700D01*
X117054300Y-110345700D02*
X103370500Y-110345700D01*
X103370500Y-110345700D02*
X102244800Y-109220000D01*
X102244800Y-109220000D02*
X99060000Y-109220000D01*
X85090000Y-80010000D02*
X88815600Y-80010000D01*
X88815600Y-80010000D02*
X90085600Y-78740000D01*
X90085600Y-78740000D02*
X95449500Y-78740000D01*
X95449500Y-78740000D02*
X96727000Y-77462500D01*
X120650000Y-119380000D02*
X119124700Y-119380000D01*
X99060000Y-119380000D02*
X100585300Y-119380000D01*
X119124700Y-119380000D02*
X117985400Y-120519300D01*
X117985400Y-120519300D02*
X101724600Y-120519300D01*
X101724600Y-120519300D02*
X100585300Y-119380000D01*
X94235300Y-80010000D02*
X95205300Y-80010000D01*
X95205300Y-80010000D02*
X97534700Y-77680600D01*
X97534700Y-77680600D02*
X97534700Y-72390000D01*
X97534700Y-72390000D02*
X96264700Y-71120000D01*
X96264700Y-71120000D02*
X91435800Y-71120000D01*
X91435800Y-71120000D02*
X86500400Y-66184600D01*
X86500400Y-66184600D02*
X83708500Y-66184600D01*
X83708500Y-66184600D02*
X80662600Y-69230500D01*
X80662600Y-69230500D02*
X80662600Y-75113500D01*
X80662600Y-75113500D02*
X79576100Y-76200000D01*
X79576100Y-76200000D02*
X75854000Y-76200000D01*
X75854000Y-76200000D02*
X73219300Y-78834700D01*
X73219300Y-78834700D02*
X53150600Y-78834700D01*
X53150600Y-78834700D02*
X51975300Y-80010000D01*
X50800000Y-80010000D02*
X51975300Y-80010000D01*
X99060000Y-72390000D02*
X97534700Y-72390000D01*
X99060000Y-72390000D02*
X100585300Y-72390000D01*
X120650000Y-72390000D02*
X119124700Y-72390000D01*
X119124700Y-72390000D02*
X117975400Y-73539300D01*
X117975400Y-73539300D02*
X101734600Y-73539300D01*
X101734600Y-73539300D02*
X100585300Y-72390000D01*
X99060000Y-111760000D02*
X100585300Y-111760000D01*
X120650000Y-111760000D02*
X119124700Y-111760000D01*
X119124700Y-111760000D02*
X118674300Y-112210400D01*
X118674300Y-112210400D02*
X116784900Y-112210400D01*
X116784900Y-112210400D02*
X116082000Y-112913300D01*
X116082000Y-112913300D02*
X101738600Y-112913300D01*
X101738600Y-112913300D02*
X100585300Y-111760000D01*
X92710000Y-80010000D02*
X94235300Y-80010000D01*
X86615300Y-77470000D02*
X90311600Y-73773700D01*
X90311600Y-73773700D02*
X93896200Y-73773700D01*
X93896200Y-73773700D02*
X95101000Y-74978500D01*
X99060000Y-121920000D02*
X100585300Y-121920000D01*
X99060000Y-82550000D02*
X100585300Y-82550000D01*
X100585300Y-82550000D02*
X101711100Y-83675800D01*
X101711100Y-83675800D02*
X115639900Y-83675800D01*
X115639900Y-83675800D02*
X116765700Y-82550000D01*
X116765700Y-82550000D02*
X120650000Y-82550000D01*
X100585300Y-121920000D02*
X101711800Y-123046500D01*
X101711800Y-123046500D02*
X117875700Y-123046500D01*
X117875700Y-123046500D02*
X119002200Y-121920000D01*
X119002200Y-121920000D02*
X120650000Y-121920000D01*
X85090000Y-77470000D02*
X86615300Y-77470000D01*
X94235300Y-87630000D02*
X95267800Y-86597500D01*
X95267800Y-86597500D02*
X95267800Y-81782000D01*
X95267800Y-81782000D02*
X98309800Y-78740000D01*
X98309800Y-78740000D02*
X99821600Y-78740000D01*
X99821600Y-78740000D02*
X100585300Y-77976300D01*
X100585300Y-77976300D02*
X100585300Y-76079400D01*
X91184700Y-87630000D02*
X87472800Y-91341900D01*
X87472800Y-91341900D02*
X77699800Y-91341900D01*
X77699800Y-91341900D02*
X71341300Y-84983400D01*
X71341300Y-84983400D02*
X71341300Y-84565900D01*
X71341300Y-84565900D02*
X67960800Y-81185400D01*
X67960800Y-81185400D02*
X50251600Y-81185400D01*
X50251600Y-81185400D02*
X49573000Y-80506800D01*
X49573000Y-80506800D02*
X49573000Y-79505000D01*
X49573000Y-79505000D02*
X50432700Y-78645300D01*
X50432700Y-78645300D02*
X50800000Y-78645300D01*
X92710000Y-87630000D02*
X91184700Y-87630000D01*
X50800000Y-77470000D02*
X50800000Y-78645300D01*
X100585300Y-76079400D02*
X100585300Y-74930000D01*
X119124700Y-74930000D02*
X117975300Y-76079400D01*
X117975300Y-76079400D02*
X100585300Y-76079400D01*
X120650000Y-74930000D02*
X119124700Y-74930000D01*
X99060000Y-74930000D02*
X100585300Y-74930000D01*
X92710000Y-87630000D02*
X94235300Y-87630000D01*
X120650000Y-114300000D02*
X118566600Y-114300000D01*
X118566600Y-114300000D02*
X117435600Y-115431000D01*
X117435600Y-115431000D02*
X113268800Y-115431000D01*
X113268800Y-115431000D02*
X112137800Y-114300000D01*
X112137800Y-114300000D02*
X99060000Y-114300000D01*
X99060000Y-85090000D02*
X100585300Y-85090000D01*
X100585300Y-85090000D02*
X101762700Y-86267400D01*
X101762700Y-86267400D02*
X115284800Y-86267400D01*
X115284800Y-86267400D02*
X116462200Y-85090000D01*
X116462200Y-85090000D02*
X120650000Y-85090000D01*
X63500000Y-95250000D02*
X61974700Y-95250000D01*
X57150000Y-96520000D02*
X58325300Y-96520000D01*
X58325300Y-96520000D02*
X60704700Y-96520000D01*
X60704700Y-96520000D02*
X61974700Y-95250000D01*
X63500000Y-97790000D02*
X61974700Y-97790000D01*
X57150000Y-99060000D02*
X58325300Y-99060000D01*
X58325300Y-99060000D02*
X60704700Y-99060000D01*
X60704700Y-99060000D02*
X61974700Y-97790000D01*
X63500000Y-100330000D02*
X61974700Y-100330000D01*
X57150000Y-101600000D02*
X58325300Y-101600000D01*
X58325300Y-101600000D02*
X60704700Y-101600000D01*
X60704700Y-101600000D02*
X61974700Y-100330000D01*
X63500000Y-102870000D02*
X61974700Y-102870000D01*
X57150000Y-104140000D02*
X58325300Y-104140000D01*
X58325300Y-104140000D02*
X60704700Y-104140000D01*
X60704700Y-104140000D02*
X61974700Y-102870000D01*
X57150000Y-85090000D02*
X63500000Y-85090000D01*
X57150000Y-82550000D02*
X63500000Y-82550000D01*
X57150000Y-80010000D02*
X63500000Y-80010000D01*
X57150000Y-77470000D02*
X63500000Y-77470000D01*
X57150000Y-74930000D02*
X63500000Y-74930000D01*
X57150000Y-72390000D02*
X63500000Y-72390000D01*
X57150000Y-69850000D02*
X63500000Y-69850000D01*
X57150000Y-67310000D02*
X63500000Y-67310000D01*
X44450000Y-95250000D02*
X44450000Y-94074700D01*
X44450000Y-94074700D02*
X44082700Y-94074700D01*
X44082700Y-94074700D02*
X43271100Y-93263100D01*
X43271100Y-93263100D02*
X43271100Y-92149400D01*
X43271100Y-92149400D02*
X43891800Y-91528700D01*
X43891800Y-91528700D02*
X52888300Y-91528700D01*
X52888300Y-91528700D02*
X53975000Y-92615400D01*
X53975000Y-92615400D02*
X58433400Y-92615400D01*
X58433400Y-92615400D02*
X59471600Y-91577200D01*
X59471600Y-91577200D02*
X64849000Y-91577200D01*
X64849000Y-91577200D02*
X65981800Y-92710000D01*
X65981800Y-92710000D02*
X78740000Y-92710000D01*
X92710000Y-90170000D02*
X91184700Y-90170000D01*
X78740000Y-92710000D02*
X88644700Y-92710000D01*
X88644700Y-92710000D02*
X91184700Y-90170000D01*
X78740000Y-95250000D02*
X80265300Y-95250000D01*
X80265300Y-95250000D02*
X82660700Y-97645400D01*
X82660700Y-97645400D02*
X87255700Y-97645400D01*
X87255700Y-97645400D02*
X97424300Y-87476800D01*
X97424300Y-87476800D02*
X97424300Y-82190300D01*
X97424300Y-82190300D02*
X98260700Y-81353900D01*
X98260700Y-81353900D02*
X108890800Y-81353900D01*
X108890800Y-81353900D02*
X112774700Y-77470000D01*
X78645000Y-95250000D02*
X78740000Y-95250000D01*
X114300000Y-77470000D02*
X112774700Y-77470000D01*
X135890000Y-77470000D02*
X134364700Y-77470000D01*
X114300000Y-77470000D02*
X115825300Y-77470000D01*
X115825300Y-77470000D02*
X117015800Y-78660500D01*
X117015800Y-78660500D02*
X133174200Y-78660500D01*
X133174200Y-78660500D02*
X134364700Y-77470000D01*
X45625300Y-92710000D02*
X49435300Y-96520000D01*
X49435300Y-96520000D02*
X53837100Y-96520000D01*
X53837100Y-96520000D02*
X55050800Y-97733700D01*
X55050800Y-97733700D02*
X60621000Y-97733700D01*
X60621000Y-97733700D02*
X61690000Y-96664700D01*
X61690000Y-96664700D02*
X75800000Y-96664700D01*
X75800000Y-96664700D02*
X77214700Y-95250000D01*
X78645000Y-95250000D02*
X77214700Y-95250000D01*
X44450000Y-92710000D02*
X45625300Y-92710000D01*
M02*
